<?xml version="1.0" encoding="UTF-8" standalone="no"?>
<!DOCTYPE svg PUBLIC "-//W3C//DTD SVG 1.1//EN"
 "http://www.w3.org/Graphics/SVG/1.1/DTD/svg11.dtd">
<!-- Generated by graphviz version 14.1.5 (0)
 -->
<!-- Title: RokuRefTV Pages: 1 -->
<!--zoomable 476 -->

<svg id="main" version="1.1" xmlns="http://www.w3.org/2000/svg" xmlns:xlink="http://www.w3.org/1999/xlink" xml:space="preserve" onload="init(evt)">

<style type="text/css"><![CDATA[
.node, .edge {opacity: 0.7;}
.node.selected, .edge.selected {opacity: 1;}
.edge:hover path { stroke: red; }
.edge:hover polygon { stroke: red; fill: red; }
]]></style>

<defs>
  <circle id="rim" cx="0" cy="0" r="7"/>
  <circle id="rim2" cx="0" cy="0" r="3.5"/>
  <g id="zoomPlus">
    <use xlink:href="#rim" fill="#404040"><set attributeName="fill" to="#808080" begin="zoomplus.mouseover" end="zoomplus.mouseout"/></use>
    <path d="M-4,0h8M0,-4v8" fill="none" stroke="white" stroke-width="1.5" pointer-events="none"/>
  </g>
  <g id="zoomMin">
    <use xlink:href="#rim" fill="#404040"><set attributeName="fill" to="#808080" begin="zoomminus.mouseover" end="zoomminus.mouseout"/></use>
    <path d="M-4,0h8" fill="none" stroke="white" stroke-width="1.5" pointer-events="none"/>
  </g>
  <g id="arrowUp" transform="translate(30 24)">
    <use xlink:href="#rim"/>
    <path pointer-events="none" fill="none" stroke="white" stroke-width="1.5" d="M0,-3.0v7 M-2.5,-0.5L0,-3.0L2.5,-0.5"/>
  </g>
  <g id="arrowRight" transform="rotate(90) translate(36 -43)">
    <use xlink:href="#rim"/>
    <path pointer-events="none" fill="none" stroke="white" stroke-width="1.5" d="M0,-3.0v7 M-2.5,-0.5L0,-3.0L2.5,-0.5"/>
  </g>
  <g id="arrowDown" transform="rotate(180) translate(-30 -48)">
    <use xlink:href="#rim"/>
    <path pointer-events="none" fill="none" stroke="white" stroke-width="1.5" d="M0,-3.0v7 M-2.5,-0.5L0,-3.0L2.5,-0.5"/>
  </g>
  <g id="arrowLeft" transform="rotate(270) translate(-36 17)">
    <use xlink:href="#rim"/>
    <path pointer-events="none" fill="none" stroke="white" stroke-width="1.5" d="M0,-3.0v7 M-2.5,-0.5L0,-3.0L2.5,-0.5"/>
  </g>
  <g id="resetDef">
    <use xlink:href="#rim2" fill="#404040"><set attributeName="fill" to="#808080" begin="reset.mouseover" end="reset.mouseout"/></use>
  </g>
</defs>
<script type="application/ecmascript">
var viewWidth = 231;
var viewHeight = 476;
var sectionId = 'dynsection-0';
</script>
<script type="application/ecmascript" xlink:href="svg.min.js"/>
<svg id="graph" class="graph">
<g id="viewport">
<title>RokuRefTV</title>
<!-- Node1 -->
<g id="Node000001" class="node">
<title>Node1</title>
<g id="a_Node000001"><a xlink:title=" ">
<polygon fill="#999999" stroke="none" points="143.5,-140 83.75,-140 83.75,-88 143.5,-88 143.5,-140"/>
<text xml:space="preserve" text-anchor="start" x="87.75" y="-126.25" font-family="Helvetica,sans-Serif" font-size="10.00">RokuRefTV</text>
<text xml:space="preserve" text-anchor="start" x="112.12" y="-110.25" font-family="Helvetica,sans-Serif" font-size="10.00"> </text>
<text xml:space="preserve" text-anchor="start" x="88.06" y="-94.25" font-family="Helvetica,sans-Serif" font-size="10.00">#</text>
<text xml:space="preserve" text-anchor="start" x="97.62" y="-94.25" font-family="Helvetica,sans-Serif" font-size="10.00">codeFor()</text>
<polygon fill="#666666" stroke="#666666" points="83.75,-122 83.75,-122 143.5,-122 143.5,-122 83.75,-122"/>
<polygon fill="#666666" stroke="#666666" points="83.75,-106 83.75,-106 143.5,-106 143.5,-106 83.75,-106"/>
<polygon fill="none" stroke="#666666" points="83.75,-88 83.75,-140 143.5,-140 143.5,-88 83.75,-88"/>
</a>
</g>
</g>
<!-- Node5 -->
<g id="Node000005" class="node">
<title>Node5</title>
<g id="a_Node000005"><a xlink:href="classAocRokuTV.html" target="_top" xlink:title=" ">
<polygon fill="white" stroke="none" points="61.25,-52 0,-52 0,0 61.25,0 61.25,-52"/>
<text xml:space="preserve" text-anchor="start" x="4" y="-38.25" font-family="Helvetica,sans-Serif" font-size="10.00">AocRokuTV</text>
<text xml:space="preserve" text-anchor="start" x="29.12" y="-22.25" font-family="Helvetica,sans-Serif" font-size="10.00"> </text>
<text xml:space="preserve" text-anchor="start" x="7.31" y="-6.25" font-family="Helvetica,sans-Serif" font-size="10.00">+</text>
<text xml:space="preserve" text-anchor="start" x="20.62" y="-6.25" font-family="Helvetica,sans-Serif" font-size="10.00">name()</text>
<polygon fill="#666666" stroke="#666666" points="0,-34 0,-34 61.25,-34 61.25,-34 0,-34"/>
<polygon fill="#666666" stroke="#666666" points="0,-18 0,-18 61.25,-18 61.25,-18 0,-18"/>
<polygon fill="none" stroke="#666666" points="0,0 0,-52 61.25,-52 61.25,0 0,0"/>
</a>
</g>
</g>
<!-- Node1&#45;&gt;Node5 -->
<g id="edge4_Node000001_Node000005" class="edge">
<title>Node1&#45;&gt;Node5</title>
<g id="a_edge4_Node000001_Node000005"><a xlink:title=" ">
<path fill="none" stroke="#63b8ff" d="M81.87,-80.1C72.81,-70.71 63.09,-60.64 54.58,-51.82"/>
<polygon fill="none" stroke="#63b8ff" points="79.1,-82.27 88.57,-87.04 84.14,-77.41 79.1,-82.27"/>
</a>
</g>
</g>
<!-- Node6 -->
<g id="Node000006" class="node">
<title>Node6</title>
<g id="a_Node000006"><a xlink:href="classSempRokuTV.html" target="_top" xlink:title=" ">
<polygon fill="white" stroke="none" points="148.38,-52 78.88,-52 78.88,0 148.38,0 148.38,-52"/>
<text xml:space="preserve" text-anchor="start" x="82.88" y="-38.25" font-family="Helvetica,sans-Serif" font-size="10.00">SempRokuTV</text>
<text xml:space="preserve" text-anchor="start" x="112.12" y="-22.25" font-family="Helvetica,sans-Serif" font-size="10.00"> </text>
<text xml:space="preserve" text-anchor="start" x="88.25" y="-6.25" font-family="Helvetica,sans-Serif" font-size="10.00">+</text>
<text xml:space="preserve" text-anchor="start" x="103.62" y="-6.25" font-family="Helvetica,sans-Serif" font-size="10.00">name()</text>
<polygon fill="#666666" stroke="#666666" points="78.88,-34 78.88,-34 148.38,-34 148.38,-34 78.88,-34"/>
<polygon fill="#666666" stroke="#666666" points="78.88,-18 78.88,-18 148.38,-18 148.38,-18 78.88,-18"/>
<polygon fill="none" stroke="#666666" points="78.88,0 78.88,-52 148.38,-52 148.38,0 78.88,0"/>
</a>
</g>
</g>
<!-- Node1&#45;&gt;Node6 -->
<g id="edge5_Node000001_Node000006" class="edge">
<title>Node1&#45;&gt;Node6</title>
<g id="a_edge5_Node000001_Node000006"><a xlink:title=" ">
<path fill="none" stroke="#63b8ff" d="M113.62,-76.66C113.62,-68.29 113.62,-59.57 113.62,-51.82"/>
<polygon fill="none" stroke="#63b8ff" points="110.13,-76.61 113.63,-86.61 117.13,-76.61 110.13,-76.61"/>
</a>
</g>
</g>
<!-- Node7 -->
<g id="Node000007" class="node">
<title>Node7</title>
<g id="a_Node000007"><a xlink:href="classTclRokuTV.html" target="_top" xlink:title=" ">
<polygon fill="white" stroke="none" points="223,-52 166.25,-52 166.25,0 223,0 223,-52"/>
<text xml:space="preserve" text-anchor="start" x="170.25" y="-38.25" font-family="Helvetica,sans-Serif" font-size="10.00">TclRokuTV</text>
<text xml:space="preserve" text-anchor="start" x="193.12" y="-22.25" font-family="Helvetica,sans-Serif" font-size="10.00"> </text>
<text xml:space="preserve" text-anchor="start" x="172.44" y="-6.25" font-family="Helvetica,sans-Serif" font-size="10.00">+</text>
<text xml:space="preserve" text-anchor="start" x="184.62" y="-6.25" font-family="Helvetica,sans-Serif" font-size="10.00">name()</text>
<polygon fill="#666666" stroke="#666666" points="166.25,-34 166.25,-34 223,-34 223,-34 166.25,-34"/>
<polygon fill="#666666" stroke="#666666" points="166.25,-18 166.25,-18 223,-18 223,-18 166.25,-18"/>
<polygon fill="none" stroke="#666666" points="166.25,0 166.25,-52 223,-52 223,0 166.25,0"/>
</a>
</g>
</g>
<!-- Node1&#45;&gt;Node7 -->
<g id="edge6_Node000001_Node000007" class="edge">
<title>Node1&#45;&gt;Node7</title>
<g id="a_edge6_Node000001_Node000007"><a xlink:title=" ">
<path fill="none" stroke="#63b8ff" d="M144.88,-79.81C153.65,-70.51 163.03,-60.55 171.25,-51.82"/>
<polygon fill="none" stroke="#63b8ff" points="142.4,-77.34 138.09,-87.02 147.5,-82.14 142.4,-77.34"/>
</a>
</g>
</g>
<!-- Node2 -->
<g id="Node000002" class="node">
<title>Node2</title>
<g id="a_Node000002"><a xlink:href="classNecTV.html" target="_top" xlink:title=" ">
<polygon fill="white" stroke="none" points="143.25,-244 84,-244 84,-176 143.25,-176 143.25,-244"/>
<text xml:space="preserve" text-anchor="start" x="98.25" y="-230.25" font-family="Helvetica,sans-Serif" font-size="10.00">NecTV</text>
<text xml:space="preserve" text-anchor="start" x="112.12" y="-214.25" font-family="Helvetica,sans-Serif" font-size="10.00"> </text>
<text xml:space="preserve" text-anchor="start" x="88" y="-198.25" font-family="Helvetica,sans-Serif" font-size="10.00">+</text>
<text xml:space="preserve" text-anchor="start" x="98" y="-198.25" font-family="Helvetica,sans-Serif" font-size="10.00">execute()</text>
<text xml:space="preserve" text-anchor="start" x="88.38" y="-182.25" font-family="Helvetica,sans-Serif" font-size="10.00">#</text>
<text xml:space="preserve" text-anchor="start" x="98" y="-182.25" font-family="Helvetica,sans-Serif" font-size="10.00">codeFor()</text>
<polygon fill="#666666" stroke="#666666" points="84,-226 84,-226 143.25,-226 143.25,-226 84,-226"/>
<polygon fill="#666666" stroke="#666666" points="84,-210 84,-210 143.25,-210 143.25,-210 84,-210"/>
<polygon fill="none" stroke="#666666" points="84,-176 84,-244 143.25,-244 143.25,-176 84,-176"/>
</a>
</g>
</g>
<!-- Node2&#45;&gt;Node1 -->
<g id="edge1_Node000001_Node000002" class="edge">
<title>Node2&#45;&gt;Node1</title>
<g id="a_edge1_Node000001_Node000002"><a xlink:title=" ">
<path fill="none" stroke="#63b8ff" d="M113.62,-164.62C113.62,-156.05 113.62,-147.37 113.62,-139.71"/>
<polygon fill="none" stroke="#63b8ff" points="110.13,-164.61 113.63,-174.61 117.13,-164.61 110.13,-164.61"/>
</a>
</g>
</g>
<!-- Node3 -->
<g id="Node000003" class="node">
<title>Node3</title>
<g id="a_Node000003"><a xlink:href="classIrDeviceTV.html" target="_top" xlink:title=" ">
<polygon fill="white" stroke="none" points="153,-348 74.25,-348 74.25,-280 153,-280 153,-348"/>
<text xml:space="preserve" text-anchor="start" x="88.88" y="-334.25" font-family="Helvetica,sans-Serif" font-size="10.00">IrDeviceTV</text>
<text xml:space="preserve" text-anchor="start" x="112.12" y="-318.25" font-family="Helvetica,sans-Serif" font-size="10.00"> </text>
<text xml:space="preserve" text-anchor="start" x="78.25" y="-302.25" font-family="Helvetica,sans-Serif" font-size="10.00">+</text>
<text xml:space="preserve" text-anchor="start" x="88.25" y="-302.25" font-family="Helvetica,sans-Serif" font-size="10.00">execute()</text>
<text xml:space="preserve" text-anchor="start" x="78.25" y="-286.25" font-family="Helvetica,sans-Serif" font-size="10.00">+</text>
<text xml:space="preserve" text-anchor="start" x="88.25" y="-286.25" font-family="Helvetica,sans-Serif" font-size="10.00">powerToggle()</text>
<polygon fill="#666666" stroke="#666666" points="74.25,-330 74.25,-330 153,-330 153,-330 74.25,-330"/>
<polygon fill="#666666" stroke="#666666" points="74.25,-314 74.25,-314 153,-314 153,-314 74.25,-314"/>
<polygon fill="none" stroke="#666666" points="74.25,-280 74.25,-348 153,-348 153,-280 74.25,-280"/>
</a>
</g>
</g>
<!-- Node3&#45;&gt;Node2 -->
<g id="edge2_Node000002_Node000003" class="edge">
<title>Node3&#45;&gt;Node2</title>
<g id="a_edge2_Node000002_Node000003"><a xlink:title=" ">
<path fill="none" stroke="#63b8ff" d="M113.62,-268.91C113.62,-260.47 113.62,-251.78 113.62,-243.77"/>
<polygon fill="none" stroke="#63b8ff" points="110.13,-268.65 113.63,-278.65 117.13,-268.65 110.13,-268.65"/>
</a>
</g>
</g>
<!-- Node4 -->
<g id="Node000004" class="node">
<title>Node4</title>
<g id="a_Node000004"><a xlink:href="classIrDevice.html" target="_top" xlink:title=" ">
<polygon fill="white" stroke="none" points="153,-468 74.25,-468 74.25,-384 153,-384 153,-468"/>
<text xml:space="preserve" text-anchor="start" x="95.25" y="-454.25" font-family="Helvetica,sans-Serif" font-size="10.00">IrDevice</text>
<text xml:space="preserve" text-anchor="start" x="112.12" y="-438.25" font-family="Helvetica,sans-Serif" font-size="10.00"> </text>
<text xml:space="preserve" text-anchor="start" x="78.25" y="-422.25" font-family="Helvetica,sans-Serif" font-size="10.00">+</text>
<text xml:space="preserve" text-anchor="start" x="88.25" y="-422.25" font-family="Helvetica,sans-Serif" font-size="10.00">~IrDevice()</text>
<text xml:space="preserve" text-anchor="start" x="78.25" y="-406.25" font-family="Helvetica,sans-Serif" font-size="10.00">+</text>
<text xml:space="preserve" text-anchor="start" x="88.25" y="-406.25" font-family="Helvetica,sans-Serif" font-size="10.00">name()</text>
<text xml:space="preserve" text-anchor="start" x="78.25" y="-390.25" font-family="Helvetica,sans-Serif" font-size="10.00">+</text>
<text xml:space="preserve" text-anchor="start" x="88.25" y="-390.25" font-family="Helvetica,sans-Serif" font-size="10.00">powerToggle()</text>
<polygon fill="#666666" stroke="#666666" points="74.25,-450 74.25,-450 153,-450 153,-450 74.25,-450"/>
<polygon fill="#666666" stroke="#666666" points="74.25,-434 74.25,-434 153,-434 153,-434 74.25,-434"/>
<polygon fill="none" stroke="#666666" points="74.25,-384 74.25,-468 153,-468 153,-384 74.25,-384"/>
</a>
</g>
</g>
<!-- Node4&#45;&gt;Node3 -->
<g id="edge3_Node000003_Node000004" class="edge">
<title>Node4&#45;&gt;Node3</title>
<g id="a_edge3_Node000003_Node000004"><a xlink:title=" ">
<path fill="none" stroke="#63b8ff" d="M113.62,-372.61C113.62,-364.14 113.62,-355.58 113.62,-347.75"/>
<polygon fill="none" stroke="#63b8ff" points="110.13,-372.53 113.63,-382.53 117.13,-372.53 110.13,-372.53"/>
</a>
</g>
</g>
</g>
</svg>

<g id="navigator" transform="translate(0 0)" fill="#404254">
  <rect fill="#f2f5e9" fill-opacity="0.5" stroke="#606060" stroke-width=".5" x="0" y="0" width="60" height="60"/>
  <use id="zoomplus" xlink:href="#zoomPlus" x="17" y="9" onmousedown="handleZoom(evt,'in')"/>
  <use id="zoomminus" xlink:href="#zoomMin" x="42" y="9" onmousedown="handleZoom(evt,'out')"/>
  <use id="reset" xlink:href="#resetDef" x="30" y="36" onmousedown="handleReset()"/>
   <use id="arrowup" xlink:href="#arrowUp" x="0" y="0" onmousedown="handlePan(0,-1)"/>
  <use id="arrowright" xlink:href="#arrowRight" x="0" y="0" onmousedown="handlePan(1,0)"/>
  <use id="arrowdown" xlink:href="#arrowDown" x="0" y="0" onmousedown="handlePan(0,1)"/>
  <use id="arrowleft" xlink:href="#arrowLeft" x="0" y="0" onmousedown="handlePan(-1,0)"/>
</g>
<svg viewBox="0 0 15 15" width="100%" height="30px" preserveAspectRatio="xMaxYMin meet">
 <g id="arrow_out" transform="scale(0.3 0.3)">
  <a xlink:href="classRokuRefTV__inherit__graph_org.svg" target="_base">
   <rect id="button" ry="5" rx="5" y="6" x="6" height="38" width="38"
        fill="#f2f5e9" fill-opacity="0.5" stroke="#606060" stroke-width="1.0"/>
   <path id="arrow"
     d="M 11.500037,31.436501 C 11.940474,20.09759 22.043105,11.32322 32.158766,21.979434 L 37.068811,17.246167 C 37.068811,17.246167 37.088388,32 37.088388,32 L 22.160133,31.978069 C 22.160133,31.978069 26.997745,27.140456 26.997745,27.140456 C 18.528582,18.264221 13.291696,25.230495 11.500037,31.436501 z"
     style="fill:#404040;"/>
  </a>
 </g>
</svg>

<style type='text/css'>
<![CDATA[
[data-mouse-over-selected='false'] { opacity: 0.7; }
[data-mouse-over-selected='true']  { opacity: 1.0; }
]]>
</style>
<script type="application/ecmascript"><![CDATA[
document.addEventListener('DOMContentLoaded', (event) => {
  highlightEdges();
  highlightAdjacentNodes();
});
]]></script>
</svg>
