<?xml version="1.0" encoding="UTF-8" standalone="no"?>
<!DOCTYPE svg PUBLIC "-//W3C//DTD SVG 1.1//EN"
 "http://www.w3.org/Graphics/SVG/1.1/DTD/svg11.dtd">
<!-- Generated by graphviz version 14.1.5 (0)
 -->
<!-- Title: radio_get_freq_from_index Pages: 1 -->
<svg width="825pt" height="299pt"
 viewBox="0.00 0.00 825.00 299.00" xmlns="http://www.w3.org/2000/svg" xmlns:xlink="http://www.w3.org/1999/xlink">
<g id="graph0" class="graph" transform="scale(1 1) rotate(0) translate(4 295.41)">
<title>radio_get_freq_from_index</title>
<!-- Node1 -->
<g id="Node000001" class="node">
<title>Node1</title>
<g id="a_Node000001"><a xlink:title="Get the radio frequency from the index.">
<polygon fill="#999999" stroke="#666666" points="816.75,-240.41 714.5,-240.41 714.5,-208.41 816.75,-208.41 816.75,-240.41"/>
<text xml:space="preserve" text-anchor="start" x="722.5" y="-226.91" font-family="Helvetica,sans-Serif" font-size="10.00">radio_get_freq_from</text>
<text xml:space="preserve" text-anchor="middle" x="765.62" y="-214.91" font-family="Helvetica,sans-Serif" font-size="10.00">_index</text>
</a>
</g>
</g>
<!-- Node2 -->
<g id="Node000002" class="node">
<title>Node2</title>
<g id="a_Node000002"><a xlink:href="ui__radio_8cpp.html#a9c8d16b50961c3eaa598d35376950dd1" target="_top" xlink:title=" ">
<polygon fill="white" stroke="#666666" points="384,-291.41 245.75,-291.41 245.75,-271.41 384,-271.41 384,-291.41"/>
<text xml:space="preserve" text-anchor="middle" x="314.88" y="-277.91" font-family="Helvetica,sans-Serif" font-size="10.00">create_frequency_dropdown</text>
</a>
</g>
</g>
<!-- Node1&#45;&gt;Node2 -->
<g id="edge1_Node000001_Node000002" class="edge">
<title>Node1&#45;&gt;Node2</title>
<g id="a_edge1_Node000001_Node000002"><a xlink:title=" ">
<path fill="none" stroke="#63b8ff" d="M702.68,-232.27C619.14,-242.89 470.88,-261.72 384.19,-272.73"/>
<polygon fill="#63b8ff" stroke="#63b8ff" points="703.04,-235.76 712.52,-231.02 702.16,-228.81 703.04,-235.76"/>
</a>
</g>
</g>
<!-- Node6 -->
<g id="Node000006" class="node">
<title>Node6</title>
<g id="a_Node000006"><a xlink:href="ui__radio_8cpp.html#a4b40a47dc78d397ec4645dd8fbe24003" target="_top" xlink:title=" ">
<polygon fill="white" stroke="#666666" points="678.5,-215.41 559,-215.41 559,-195.41 678.5,-195.41 678.5,-215.41"/>
<text xml:space="preserve" text-anchor="middle" x="618.75" y="-201.91" font-family="Helvetica,sans-Serif" font-size="10.00">update_radio_frequency</text>
</a>
</g>
</g>
<!-- Node1&#45;&gt;Node6 -->
<g id="edge5_Node000001_Node000006" class="edge">
<title>Node1&#45;&gt;Node6</title>
<g id="a_edge5_Node000001_Node000006"><a xlink:title=" ">
<path fill="none" stroke="#63b8ff" d="M703.16,-216.34C695.12,-215.29 686.89,-214.21 678.89,-213.16"/>
<polygon fill="#63b8ff" stroke="#63b8ff" points="702.49,-219.79 712.86,-217.62 703.4,-212.85 702.49,-219.79"/>
</a>
</g>
</g>
<!-- Node3 -->
<g id="Node000003" class="node">
<title>Node3</title>
<g id="a_Node000003"><a xlink:href="ui__msgchat_8cpp.html#a263f210e7643a15a979aabed9b37cdaf" target="_top" xlink:title=" ">
<polygon fill="white" stroke="#666666" points="209,-215.41 129.25,-215.41 129.25,-195.41 209,-195.41 209,-215.41"/>
<text xml:space="preserve" text-anchor="middle" x="169.12" y="-201.91" font-family="Helvetica,sans-Serif" font-size="10.00">create_chat_ui</text>
</a>
</g>
</g>
<!-- Node2&#45;&gt;Node3 -->
<g id="edge2_Node000002_Node000003" class="edge">
<title>Node2&#45;&gt;Node3</title>
<g id="a_edge2_Node000002_Node000003"><a xlink:title=" ">
<path fill="none" stroke="#63b8ff" d="M255.93,-267.19C252.17,-265.73 248.5,-264.14 245,-262.41 219.82,-249.93 194.68,-228.49 180.89,-215.76"/>
<polygon fill="#63b8ff" stroke="#63b8ff" points="254.65,-270.45 265.24,-270.47 256.97,-263.85 254.65,-270.45"/>
</a>
</g>
</g>
<!-- Node5 -->
<g id="Node000005" class="node">
<title>Node5</title>
<g id="a_Node000005"><a xlink:href="ui__radio_8cpp.html#a30702f97d00096d2d0a32c0acc4cb0af" target="_top" xlink:title=" ">
<polygon fill="white" stroke="#666666" points="207.5,-139.41 130.75,-139.41 130.75,-119.41 207.5,-119.41 207.5,-139.41"/>
<text xml:space="preserve" text-anchor="middle" x="169.12" y="-125.91" font-family="Helvetica,sans-Serif" font-size="10.00">ui_radio_enter</text>
</a>
</g>
</g>
<!-- Node2&#45;&gt;Node5 -->
<g id="edge4_Node000002_Node000005" class="edge">
<title>Node2&#45;&gt;Node5</title>
<g id="a_edge4_Node000002_Node000005"><a xlink:title=" ">
<path fill="none" stroke="#63b8ff" d="M248.99,-265.45C247.61,-264.49 246.28,-263.48 245,-262.41 216.38,-238.36 227.59,-218.83 209,-186.41 199.23,-169.36 186.02,-150.76 177.79,-139.6"/>
<polygon fill="#63b8ff" stroke="#63b8ff" points="246.92,-268.3 257.34,-270.21 250.39,-262.22 246.92,-268.3"/>
</a>
</g>
</g>
<!-- Node4 -->
<g id="Node000004" class="node">
<title>Node4</title>
<g id="a_Node000004"><a xlink:href="ui__msgchat_8cpp.html#adba7e4ca9be94a18773fc377a731ec9f" target="_top" xlink:title=" ">
<polygon fill="white" stroke="#666666" points="93.25,-215.41 0,-215.41 0,-195.41 93.25,-195.41 93.25,-215.41"/>
<text xml:space="preserve" text-anchor="middle" x="46.62" y="-201.91" font-family="Helvetica,sans-Serif" font-size="10.00">ui_msgchat_enter</text>
</a>
</g>
</g>
<!-- Node3&#45;&gt;Node4 -->
<g id="edge3_Node000003_Node000004" class="edge">
<title>Node3&#45;&gt;Node4</title>
<g id="a_edge3_Node000003_Node000004"><a xlink:title=" ">
<path fill="none" stroke="#63b8ff" d="M117.61,-205.41C109.68,-205.41 101.51,-205.41 93.68,-205.41"/>
<polygon fill="#63b8ff" stroke="#63b8ff" points="117.49,-208.91 127.49,-205.41 117.49,-201.91 117.49,-208.91"/>
</a>
</g>
</g>
<!-- Node7 -->
<g id="Node000007" class="node">
<title>Node7</title>
<g id="a_Node000007"><a xlink:href="ui__radio_8cpp.html#acc5c85c940dbd8e4fd6f38952ac4e2cc" target="_top" xlink:title=" ">
<polygon fill="white" stroke="#666666" points="523,-177.41 420.75,-177.41 420.75,-157.41 523,-157.41 523,-177.41"/>
<text xml:space="preserve" text-anchor="middle" x="471.88" y="-163.91" font-family="Helvetica,sans-Serif" font-size="10.00">_ui_radio_obj_event</text>
</a>
</g>
</g>
<!-- Node6&#45;&gt;Node7 -->
<g id="edge6_Node000006_Node000007" class="edge">
<title>Node6&#45;&gt;Node7</title>
<g id="a_edge6_Node000006_Node000007"><a xlink:title=" ">
<path fill="none" stroke="#63b8ff" d="M566.74,-192.03C549.01,-187.38 529.41,-182.23 512.72,-177.86"/>
<polygon fill="#63b8ff" stroke="#63b8ff" points="565.75,-195.39 576.31,-194.54 567.53,-188.61 565.75,-195.39"/>
</a>
</g>
</g>
<!-- Node7&#45;&gt;Node2 -->
<g id="edge13_Node000007_Node000002" class="edge">
<title>Node7&#45;&gt;Node2</title>
<g id="a_edge13_Node000007_Node000002"><a xlink:title=" ">
<path fill="none" stroke="#63b8ff" d="M458.06,-187.25C443.05,-208.9 416.19,-243.05 384.75,-262.41 379.15,-265.85 372.92,-268.69 366.55,-271.01"/>
<polygon fill="#63b8ff" stroke="#63b8ff" points="460.93,-189.25 463.6,-179 455.12,-185.35 460.93,-189.25"/>
</a>
</g>
</g>
<!-- Node7&#45;&gt;Node5 -->
<g id="edge23_Node000007_Node000005" class="edge">
<title>Node7&#45;&gt;Node5</title>
<g id="a_edge23_Node000007_Node000005"><a xlink:title=" ">
<path fill="none" stroke="#63b8ff" d="M465.58,-146.45C455.9,-113.16 431.89,-49.23 384.75,-22.41 330.77,8.32 300.09,6.28 245,-22.41 204.98,-43.25 181.94,-96.34 173.66,-118.95"/>
<polygon fill="#63b8ff" stroke="#63b8ff" points="462.1,-147.01 468.11,-155.74 468.86,-145.17 462.1,-147.01"/>
</a>
</g>
</g>
<!-- Node8 -->
<g id="Node000008" class="node">
<title>Node8</title>
<g id="a_Node000008"><a xlink:href="ui__radio_8cpp.html#abfab98dac2ad53b0075730dd94f96cfe" target="_top" xlink:title=" ">
<polygon fill="white" stroke="#666666" points="384.75,-215.41 245,-215.41 245,-195.41 384.75,-195.41 384.75,-215.41"/>
<text xml:space="preserve" text-anchor="middle" x="314.88" y="-201.91" font-family="Helvetica,sans-Serif" font-size="10.00">create_bandwidth_dropdown</text>
</a>
</g>
</g>
<!-- Node7&#45;&gt;Node8 -->
<g id="edge7_Node000007_Node000008" class="edge">
<title>Node7&#45;&gt;Node8</title>
<g id="a_edge7_Node000007_Node000008"><a xlink:title=" ">
<path fill="none" stroke="#63b8ff" d="M417.11,-180.59C397.93,-185.29 376.61,-190.52 358.5,-194.96"/>
<polygon fill="#63b8ff" stroke="#63b8ff" points="417.76,-184.03 426.64,-178.25 416.09,-177.23 417.76,-184.03"/>
</a>
</g>
</g>
<!-- Node9 -->
<g id="Node000009" class="node">
<title>Node9</title>
<g id="a_Node000009"><a xlink:href="ui__radio_8cpp.html#a9f42d0f474e468714a70e02469b5cb2d" target="_top" xlink:title=" ">
<polygon fill="white" stroke="#666666" points="366.75,-139.41 263,-139.41 263,-119.41 366.75,-119.41 366.75,-139.41"/>
<text xml:space="preserve" text-anchor="middle" x="314.88" y="-125.91" font-family="Helvetica,sans-Serif" font-size="10.00">create_cr_dropdown</text>
</a>
</g>
</g>
<!-- Node7&#45;&gt;Node9 -->
<g id="edge10_Node000007_Node000009" class="edge">
<title>Node7&#45;&gt;Node9</title>
<g id="a_edge10_Node000007_Node000009"><a xlink:title=" ">
<path fill="none" stroke="#63b8ff" d="M417.11,-154.22C397.93,-149.52 376.61,-144.3 358.5,-139.86"/>
<polygon fill="#63b8ff" stroke="#63b8ff" points="416.09,-157.58 426.64,-156.56 417.76,-150.78 416.09,-157.58"/>
</a>
</g>
</g>
<!-- Node10 -->
<g id="Node000010" class="node">
<title>Node10</title>
<g id="a_Node000010"><a xlink:href="ui__radio_8cpp.html#a8f2d520fbb9b7f676232f3a58456751a" target="_top" xlink:title=" ">
<polygon fill="white" stroke="#666666" points="374.62,-177.41 255.12,-177.41 255.12,-157.41 374.62,-157.41 374.62,-177.41"/>
<text xml:space="preserve" text-anchor="middle" x="314.88" y="-163.91" font-family="Helvetica,sans-Serif" font-size="10.00">create_mode_dropdown</text>
</a>
</g>
</g>
<!-- Node7&#45;&gt;Node10 -->
<g id="edge14_Node000007_Node000010" class="edge">
<title>Node7&#45;&gt;Node10</title>
<g id="a_edge14_Node000007_Node000010"><a xlink:title=" ">
<path fill="none" stroke="#63b8ff" d="M409.09,-167.41C397.89,-167.41 386.24,-167.41 375.12,-167.41"/>
<polygon fill="#63b8ff" stroke="#63b8ff" points="409.04,-170.91 419.04,-167.41 409.04,-163.91 409.04,-170.91"/>
</a>
</g>
</g>
<!-- Node11 -->
<g id="Node000011" class="node">
<title>Node11</title>
<g id="a_Node000011"><a xlink:href="ui__radio_8cpp.html#a7efa529720f70fddfa25ccd850672abb" target="_top" xlink:title=" ">
<polygon fill="white" stroke="#666666" points="366.75,-101.41 263,-101.41 263,-81.41 366.75,-81.41 366.75,-101.41"/>
<text xml:space="preserve" text-anchor="middle" x="314.88" y="-87.91" font-family="Helvetica,sans-Serif" font-size="10.00">create_sf_dropdown</text>
</a>
</g>
</g>
<!-- Node7&#45;&gt;Node11 -->
<g id="edge15_Node000007_Node000011" class="edge">
<title>Node7&#45;&gt;Node11</title>
<g id="a_edge15_Node000007_Node000011"><a xlink:title=" ">
<path fill="none" stroke="#63b8ff" d="M448.97,-150.08C432.21,-137.55 408.08,-121.02 384.75,-110.41 377.52,-107.12 369.61,-104.29 361.79,-101.89"/>
<polygon fill="#63b8ff" stroke="#63b8ff" points="446.65,-152.72 456.72,-156.01 450.9,-147.15 446.65,-152.72"/>
</a>
</g>
</g>
<!-- Node12 -->
<g id="Node000012" class="node">
<title>Node12</title>
<g id="a_Node000012"><a xlink:href="ui__radio_8cpp.html#a6943174fc596ae1275bd987e26559623" target="_top" xlink:title=" ">
<polygon fill="white" stroke="#666666" points="361.5,-63.41 268.25,-63.41 268.25,-31.41 361.5,-31.41 361.5,-63.41"/>
<text xml:space="preserve" text-anchor="start" x="276.25" y="-49.91" font-family="Helvetica,sans-Serif" font-size="10.00">create_tx_interval</text>
<text xml:space="preserve" text-anchor="middle" x="314.88" y="-37.91" font-family="Helvetica,sans-Serif" font-size="10.00">_dropdown</text>
</a>
</g>
</g>
<!-- Node7&#45;&gt;Node12 -->
<g id="edge18_Node000007_Node000012" class="edge">
<title>Node7&#45;&gt;Node12</title>
<g id="a_edge18_Node000007_Node000012"><a xlink:title=" ">
<path fill="none" stroke="#63b8ff" d="M457.52,-147.69C442.21,-126.43 415.25,-92.88 384.75,-72.41 377.78,-67.73 369.83,-63.8 361.86,-60.54"/>
<polygon fill="#63b8ff" stroke="#63b8ff" points="454.6,-149.61 463.2,-155.79 460.33,-145.59 454.6,-149.61"/>
</a>
</g>
</g>
<!-- Node13 -->
<g id="Node000013" class="node">
<title>Node13</title>
<g id="a_Node000013"><a xlink:href="ui__radio_8cpp.html#afb1000c9e2ef3f0e478317b13a7b4b30" target="_top" xlink:title=" ">
<polygon fill="white" stroke="#666666" points="382.5,-253.41 247.25,-253.41 247.25,-233.41 382.5,-233.41 382.5,-253.41"/>
<text xml:space="preserve" text-anchor="middle" x="314.88" y="-239.91" font-family="Helvetica,sans-Serif" font-size="10.00">create_tx_power_dropdown</text>
</a>
</g>
</g>
<!-- Node7&#45;&gt;Node13 -->
<g id="edge20_Node000007_Node000013" class="edge">
<title>Node7&#45;&gt;Node13</title>
<g id="a_edge20_Node000007_Node000013"><a xlink:title=" ">
<path fill="none" stroke="#63b8ff" d="M448.97,-184.73C432.21,-197.26 408.08,-213.79 384.75,-224.41 377.52,-227.69 369.61,-230.52 361.79,-232.92"/>
<polygon fill="#63b8ff" stroke="#63b8ff" points="450.9,-187.66 456.72,-178.8 446.65,-182.09 450.9,-187.66"/>
</a>
</g>
</g>
<!-- Node8&#45;&gt;Node3 -->
<g id="edge8_Node000008_Node000003" class="edge">
<title>Node8&#45;&gt;Node3</title>
<g id="a_edge8_Node000008_Node000003"><a xlink:title=" ">
<path fill="none" stroke="#63b8ff" d="M233.23,-205.41C224.99,-205.41 216.9,-205.41 209.42,-205.41"/>
<polygon fill="#63b8ff" stroke="#63b8ff" points="233.01,-208.91 243.01,-205.41 233.01,-201.91 233.01,-208.91"/>
</a>
</g>
</g>
<!-- Node8&#45;&gt;Node5 -->
<g id="edge9_Node000008_Node000005" class="edge">
<title>Node8&#45;&gt;Node5</title>
<g id="a_edge9_Node000008_Node000005"><a xlink:title=" ">
<path fill="none" stroke="#63b8ff" d="M255.93,-191.19C252.17,-189.73 248.5,-188.14 245,-186.41 219.82,-173.93 194.68,-152.49 180.89,-139.76"/>
<polygon fill="#63b8ff" stroke="#63b8ff" points="254.65,-194.45 265.24,-194.47 256.97,-187.85 254.65,-194.45"/>
</a>
</g>
</g>
<!-- Node9&#45;&gt;Node3 -->
<g id="edge11_Node000009_Node000003" class="edge">
<title>Node9&#45;&gt;Node3</title>
<g id="a_edge11_Node000009_Node000003"><a xlink:title=" ">
<path fill="none" stroke="#63b8ff" d="M255.93,-143.62C252.17,-145.08 248.5,-146.67 245,-148.41 219.82,-160.88 194.68,-182.32 180.89,-195.05"/>
<polygon fill="#63b8ff" stroke="#63b8ff" points="256.97,-146.96 265.24,-140.34 254.65,-140.36 256.97,-146.96"/>
</a>
</g>
</g>
<!-- Node9&#45;&gt;Node5 -->
<g id="edge12_Node000009_Node000005" class="edge">
<title>Node9&#45;&gt;Node5</title>
<g id="a_edge12_Node000009_Node000005"><a xlink:title=" ">
<path fill="none" stroke="#63b8ff" d="M251.58,-129.41C236.72,-129.41 221.31,-129.41 207.94,-129.41"/>
<polygon fill="#63b8ff" stroke="#63b8ff" points="251.28,-132.91 261.28,-129.41 251.28,-125.91 251.28,-132.91"/>
</a>
</g>
</g>
<!-- Node11&#45;&gt;Node3 -->
<g id="edge16_Node000011_Node000003" class="edge">
<title>Node11&#45;&gt;Node3</title>
<g id="a_edge16_Node000011_Node000003"><a xlink:title=" ">
<path fill="none" stroke="#63b8ff" d="M252.12,-106.24C249.65,-107.51 247.27,-108.9 245,-110.41 227.59,-121.97 192,-172.96 177.02,-195.09"/>
<polygon fill="#63b8ff" stroke="#63b8ff" points="253.51,-109.45 261.22,-102.19 250.66,-103.05 253.51,-109.45"/>
</a>
</g>
</g>
<!-- Node11&#45;&gt;Node5 -->
<g id="edge17_Node000011_Node000005" class="edge">
<title>Node11&#45;&gt;Node5</title>
<g id="a_edge17_Node000011_Node000005"><a xlink:title=" ">
<path fill="none" stroke="#63b8ff" d="M263.15,-104.82C244.88,-109.64 224.62,-115 207.68,-119.48"/>
<polygon fill="#63b8ff" stroke="#63b8ff" points="263.98,-108.22 272.75,-102.28 262.19,-101.45 263.98,-108.22"/>
</a>
</g>
</g>
<!-- Node12&#45;&gt;Node5 -->
<g id="edge19_Node000012_Node000005" class="edge">
<title>Node12&#45;&gt;Node5</title>
<g id="a_edge19_Node000012_Node000005"><a xlink:title=" ">
<path fill="none" stroke="#63b8ff" d="M257.25,-66.36C253.04,-68.26 248.91,-70.27 245,-72.41 220.62,-85.71 195.6,-106.48 181.54,-118.93"/>
<polygon fill="#63b8ff" stroke="#63b8ff" points="258.56,-69.61 266.43,-62.51 255.85,-63.15 258.56,-69.61"/>
</a>
</g>
</g>
<!-- Node13&#45;&gt;Node3 -->
<g id="edge21_Node000013_Node000003" class="edge">
<title>Node13&#45;&gt;Node3</title>
<g id="a_edge21_Node000013_Node000003"><a xlink:title=" ">
<path fill="none" stroke="#63b8ff" d="M263.17,-230C245.43,-225.31 225.8,-220.12 209.16,-215.72"/>
<polygon fill="#63b8ff" stroke="#63b8ff" points="262.19,-233.36 272.75,-232.53 263.98,-226.6 262.19,-233.36"/>
</a>
</g>
</g>
<!-- Node13&#45;&gt;Node5 -->
<g id="edge22_Node000013_Node000005" class="edge">
<title>Node13&#45;&gt;Node5</title>
<g id="a_edge22_Node000013_Node000005"><a xlink:title=" ">
<path fill="none" stroke="#63b8ff" d="M251.57,-228.29C249.3,-227.09 247.1,-225.8 245,-224.41 227.59,-212.85 192,-161.85 177.02,-139.72"/>
<polygon fill="#63b8ff" stroke="#63b8ff" points="249.96,-231.4 260.51,-232.34 252.85,-225.03 249.96,-231.4"/>
</a>
</g>
</g>
</g>
</svg>
