<?xml version="1.0" encoding="UTF-8" standalone="no"?>
<!DOCTYPE svg PUBLIC "-//W3C//DTD SVG 1.1//EN"
 "http://www.w3.org/Graphics/SVG/1.1/DTD/svg11.dtd">
<!-- Generated by graphviz version 14.1.5 (0)
 -->
<!-- Title: create_radius_button Pages: 1 -->
<!--zoomable 712 -->

<svg id="main" version="1.1" xmlns="http://www.w3.org/2000/svg" xmlns:xlink="http://www.w3.org/1999/xlink" xml:space="preserve" onload="init(evt)">

<style type="text/css"><![CDATA[
.node, .edge {opacity: 0.7;}
.node.selected, .edge.selected {opacity: 1;}
.edge:hover path { stroke: red; }
.edge:hover polygon { stroke: red; fill: red; }
]]></style>

<defs>
  <circle id="rim" cx="0" cy="0" r="7"/>
  <circle id="rim2" cx="0" cy="0" r="3.5"/>
  <g id="zoomPlus">
    <use xlink:href="#rim" fill="#404040"><set attributeName="fill" to="#808080" begin="zoomplus.mouseover" end="zoomplus.mouseout"/></use>
    <path d="M-4,0h8M0,-4v8" fill="none" stroke="white" stroke-width="1.5" pointer-events="none"/>
  </g>
  <g id="zoomMin">
    <use xlink:href="#rim" fill="#404040"><set attributeName="fill" to="#808080" begin="zoomminus.mouseover" end="zoomminus.mouseout"/></use>
    <path d="M-4,0h8" fill="none" stroke="white" stroke-width="1.5" pointer-events="none"/>
  </g>
  <g id="arrowUp" transform="translate(30 24)">
    <use xlink:href="#rim"/>
    <path pointer-events="none" fill="none" stroke="white" stroke-width="1.5" d="M0,-3.0v7 M-2.5,-0.5L0,-3.0L2.5,-0.5"/>
  </g>
  <g id="arrowRight" transform="rotate(90) translate(36 -43)">
    <use xlink:href="#rim"/>
    <path pointer-events="none" fill="none" stroke="white" stroke-width="1.5" d="M0,-3.0v7 M-2.5,-0.5L0,-3.0L2.5,-0.5"/>
  </g>
  <g id="arrowDown" transform="rotate(180) translate(-30 -48)">
    <use xlink:href="#rim"/>
    <path pointer-events="none" fill="none" stroke="white" stroke-width="1.5" d="M0,-3.0v7 M-2.5,-0.5L0,-3.0L2.5,-0.5"/>
  </g>
  <g id="arrowLeft" transform="rotate(270) translate(-36 17)">
    <use xlink:href="#rim"/>
    <path pointer-events="none" fill="none" stroke="white" stroke-width="1.5" d="M0,-3.0v7 M-2.5,-0.5L0,-3.0L2.5,-0.5"/>
  </g>
  <g id="resetDef">
    <use xlink:href="#rim2" fill="#404040"><set attributeName="fill" to="#808080" begin="reset.mouseover" end="reset.mouseout"/></use>
  </g>
</defs>
<script type="application/ecmascript">
var viewWidth = 382;
var viewHeight = 712;
var sectionId = 'dynsection-11';
</script>
<script type="application/ecmascript" xlink:href="svg.min.js"/>
<svg id="graph" class="graph">
<g id="viewport">
<title>create_radius_button</title>
<!-- Node1 -->
<g id="Node000001" class="node">
<title>Node1</title>
<g id="a_Node000001"><a xlink:title=" ">
<polygon fill="#999999" stroke="#666666" points="374.25,-362 267.5,-362 267.5,-342 374.25,-342 374.25,-362"/>
<text xml:space="preserve" text-anchor="middle" x="320.88" y="-348.5" font-family="Helvetica,sans-Serif" font-size="10.00">create_radius_button</text>
</a>
</g>
</g>
<!-- Node2 -->
<g id="Node000002" class="node">
<title>Node2</title>
<g id="a_Node000002"><a xlink:href="ui__tools_8cpp.html#a7cacb0af0f83c41b7d8bfe984d778b5e" target="_top" xlink:title=" ">
<polygon fill="white" stroke="#666666" points="231.5,-362 159.25,-362 159.25,-342 231.5,-342 231.5,-362"/>
<text xml:space="preserve" text-anchor="middle" x="195.38" y="-348.5" font-family="Helvetica,sans-Serif" font-size="10.00">create_menu</text>
</a>
</g>
</g>
<!-- Node1&#45;&gt;Node2 -->
<g id="edge1_Node000001_Node000002" class="edge">
<title>Node1&#45;&gt;Node2</title>
<g id="a_edge1_Node000001_Node000002"><a xlink:title=" ">
<path fill="none" stroke="#63b8ff" d="M255.88,-352C247.6,-352 239.38,-352 231.8,-352"/>
<polygon fill="#63b8ff" stroke="#63b8ff" points="255.63,-355.5 265.63,-352 255.63,-348.5 255.63,-355.5"/>
</a>
</g>
</g>
<!-- Node7 -->
<g id="Node000007" class="node">
<title>Node7</title>
<g id="a_Node000007"><a xlink:href="ui__camera__remote_8cpp.html#adc6d50b0685ce6e9bf45325aaa9142f9" target="_top" xlink:title=" ">
<polygon fill="white" stroke="#666666" points="123.25,-704 0,-704 0,-684 123.25,-684 123.25,-704"/>
<text xml:space="preserve" text-anchor="middle" x="61.62" y="-690.5" font-family="Helvetica,sans-Serif" font-size="10.00">ui_camera_remote_enter</text>
</a>
</g>
</g>
<!-- Node1&#45;&gt;Node7 -->
<g id="edge21_Node000001_Node000007" class="edge">
<title>Node1&#45;&gt;Node7</title>
<g id="a_edge21_Node000001_Node000007"><a xlink:title=" ">
<path fill="none" stroke="#63b8ff" d="M313,-373.14C293.24,-430.6 230.68,-590.96 123.25,-675 118.82,-678.47 113.75,-681.31 108.47,-683.63"/>
<polygon fill="#63b8ff" stroke="#63b8ff" points="316.32,-374.25 316.18,-363.66 309.68,-372.02 316.32,-374.25"/>
</a>
</g>
</g>
<!-- Node17 -->
<g id="Node000017" class="node">
<title>Node17</title>
<g id="a_Node000017"><a xlink:href="ui__radio_8cpp.html#a30702f97d00096d2d0a32c0acc4cb0af" target="_top" xlink:title=" ">
<polygon fill="white" stroke="#666666" points="100,-20 23.25,-20 23.25,0 100,0 100,-20"/>
<text xml:space="preserve" text-anchor="middle" x="61.62" y="-6.5" font-family="Helvetica,sans-Serif" font-size="10.00">ui_radio_enter</text>
</a>
</g>
</g>
<!-- Node1&#45;&gt;Node17 -->
<g id="edge22_Node000001_Node000017" class="edge">
<title>Node1&#45;&gt;Node17</title>
<g id="a_edge22_Node000001_Node000017"><a xlink:title=" ">
<path fill="none" stroke="#63b8ff" d="M313,-330.86C293.24,-273.4 230.68,-113.04 123.25,-29 116.56,-23.77 108.41,-19.96 100.28,-17.2"/>
<polygon fill="#63b8ff" stroke="#63b8ff" points="309.68,-331.98 316.18,-340.34 316.32,-329.75 309.68,-331.98"/>
</a>
</g>
</g>
<!-- Node3 -->
<g id="Node000003" class="node">
<title>Node3</title>
<g id="a_Node000003"><a xlink:href="ui__audio_8cpp.html#a4e94b2e93b9bea709711f648283559bf" target="_top" xlink:title=" ">
<polygon fill="white" stroke="#666666" points="101.12,-666 22.12,-666 22.12,-646 101.12,-646 101.12,-666"/>
<text xml:space="preserve" text-anchor="middle" x="61.62" y="-652.5" font-family="Helvetica,sans-Serif" font-size="10.00">ui_audio_enter</text>
</a>
</g>
</g>
<!-- Node2&#45;&gt;Node3 -->
<g id="edge2_Node000002_Node000003" class="edge">
<title>Node2&#45;&gt;Node3</title>
<g id="a_edge2_Node000002_Node000003"><a xlink:title=" ">
<path fill="none" stroke="#63b8ff" d="M190.26,-373.54C178.04,-436.57 141.7,-617.43 123.25,-637 117.42,-643.18 109.62,-647.36 101.55,-650.19"/>
<polygon fill="#63b8ff" stroke="#63b8ff" points="193.69,-374.25 192.14,-363.77 186.81,-372.93 193.69,-374.25"/>
</a>
</g>
</g>
<!-- Node4 -->
<g id="Node000004" class="node">
<title>Node4</title>
<g id="a_Node000004"><a xlink:href="ui__ble_8cpp.html#a8f478d0c06a5df0b0cd91c99c63a088d" target="_top" xlink:title=" ">
<polygon fill="white" stroke="#666666" points="95.88,-628 27.38,-628 27.38,-608 95.88,-608 95.88,-628"/>
<text xml:space="preserve" text-anchor="middle" x="61.62" y="-614.5" font-family="Helvetica,sans-Serif" font-size="10.00">ui_ble_enter</text>
</a>
</g>
</g>
<!-- Node2&#45;&gt;Node4 -->
<g id="edge3_Node000002_Node000004" class="edge">
<title>Node2&#45;&gt;Node4</title>
<g id="a_edge3_Node000002_Node000004"><a xlink:title=" ">
<path fill="none" stroke="#63b8ff" d="M190.85,-373.56C181.61,-427.49 155.22,-566.27 123.25,-599 116.08,-606.34 106.12,-610.85 96.34,-613.62"/>
<polygon fill="#63b8ff" stroke="#63b8ff" points="194.28,-374.26 192.48,-363.82 187.37,-373.1 194.28,-374.26"/>
</a>
</g>
</g>
<!-- Node5 -->
<g id="Node000005" class="node">
<title>Node5</title>
<g id="a_Node000005"><a xlink:href="ui__ble__kb_8cpp.html#ab48e635ec761213692ea9e2c93fee757" target="_top" xlink:title=" ">
<polygon fill="white" stroke="#666666" points="103.75,-590 19.5,-590 19.5,-570 103.75,-570 103.75,-590"/>
<text xml:space="preserve" text-anchor="middle" x="61.62" y="-576.5" font-family="Helvetica,sans-Serif" font-size="10.00">ui_ble_kb_enter</text>
</a>
</g>
</g>
<!-- Node2&#45;&gt;Node5 -->
<g id="edge4_Node000002_Node000005" class="edge">
<title>Node2&#45;&gt;Node5</title>
<g id="a_edge4_Node000002_Node000005"><a xlink:title=" ">
<path fill="none" stroke="#63b8ff" d="M193.24,-373.74C189.86,-415.88 176.45,-509.08 123.25,-561 117.88,-566.24 111.09,-570.03 104.01,-572.79"/>
<polygon fill="#63b8ff" stroke="#63b8ff" points="196.72,-374.13 193.9,-363.91 189.74,-373.66 196.72,-374.13"/>
</a>
</g>
</g>
<!-- Node6 -->
<g id="Node000006" class="node">
<title>Node6</title>
<g id="a_Node000006"><a xlink:href="ui__calendar_8cpp.html#ae9a477e1b5f0ec370c33467225be43ca" target="_top" xlink:title=" ">
<polygon fill="white" stroke="#666666" points="107.88,-552 15.38,-552 15.38,-532 107.88,-532 107.88,-552"/>
<text xml:space="preserve" text-anchor="middle" x="61.62" y="-538.5" font-family="Helvetica,sans-Serif" font-size="10.00">ui_calendar_enter</text>
</a>
</g>
</g>
<!-- Node2&#45;&gt;Node6 -->
<g id="edge5_Node000002_Node000006" class="edge">
<title>Node2&#45;&gt;Node6</title>
<g id="a_edge5_Node000002_Node000006"><a xlink:title=" ">
<path fill="none" stroke="#63b8ff" d="M191.42,-373.24C185.29,-409.24 167.85,-482.27 123.25,-523 118.85,-527.02 113.61,-530.18 108.08,-532.68"/>
<polygon fill="#63b8ff" stroke="#63b8ff" points="194.83,-374.08 192.91,-363.66 187.91,-373.01 194.83,-374.08"/>
</a>
</g>
</g>
<!-- Node2&#45;&gt;Node7 -->
<g id="edge6_Node000002_Node000007" class="edge">
<title>Node2&#45;&gt;Node7</title>
<g id="a_edge6_Node000002_Node000007"><a xlink:title=" ">
<path fill="none" stroke="#63b8ff" d="M190,-373.21C175.33,-444.19 128.48,-669.3 123.25,-675 120.12,-678.42 116.38,-681.22 112.33,-683.53"/>
<polygon fill="#63b8ff" stroke="#63b8ff" points="193.38,-374.16 191.97,-363.65 186.53,-372.74 193.38,-374.16"/>
</a>
</g>
</g>
<!-- Node8 -->
<g id="Node000008" class="node">
<title>Node8</title>
<g id="a_Node000008"><a xlink:href="ui__clock_8cpp.html#a176c0fde6c95f9f67f3d8c8f1039c953" target="_top" xlink:title=" ">
<polygon fill="white" stroke="#666666" points="101.12,-514 22.12,-514 22.12,-494 101.12,-494 101.12,-514"/>
<text xml:space="preserve" text-anchor="middle" x="61.62" y="-500.5" font-family="Helvetica,sans-Serif" font-size="10.00">ui_clock_enter</text>
</a>
</g>
</g>
<!-- Node2&#45;&gt;Node8 -->
<g id="edge7_Node000002_Node000008" class="edge">
<title>Node2&#45;&gt;Node8</title>
<g id="a_edge7_Node000002_Node000008"><a xlink:title=" ">
<path fill="none" stroke="#63b8ff" d="M188.53,-373.42C179.42,-402.81 159.07,-455.33 123.25,-485 116.96,-490.21 109.25,-493.99 101.45,-496.74"/>
<polygon fill="#63b8ff" stroke="#63b8ff" points="191.89,-374.41 191.33,-363.83 185.17,-372.45 191.89,-374.41"/>
</a>
</g>
</g>
<!-- Node9 -->
<g id="Node000009" class="node">
<title>Node9</title>
<g id="a_Node000009"><a xlink:href="ui__keyboard_8cpp.html#a34ec6b10fc702cfe70fb6937dd057308" target="_top" xlink:title=" ">
<polygon fill="white" stroke="#666666" points="109.38,-476 13.88,-476 13.88,-456 109.38,-456 109.38,-476"/>
<text xml:space="preserve" text-anchor="middle" x="61.62" y="-462.5" font-family="Helvetica,sans-Serif" font-size="10.00">ui_keyboard_enter</text>
</a>
</g>
</g>
<!-- Node2&#45;&gt;Node9 -->
<g id="edge8_Node000002_Node000009" class="edge">
<title>Node2&#45;&gt;Node9</title>
<g id="a_edge8_Node000002_Node000009"><a xlink:title=" ">
<path fill="none" stroke="#63b8ff" d="M184.18,-372.29C172.35,-393.84 150.89,-427.44 123.25,-447 118.39,-450.44 112.88,-453.28 107.21,-455.61"/>
<polygon fill="#63b8ff" stroke="#63b8ff" points="187.2,-374.07 188.76,-363.59 181.01,-370.81 187.2,-374.07"/>
</a>
</g>
</g>
<!-- Node10 -->
<g id="Node000010" class="node">
<title>Node10</title>
<g id="a_Node000010"><a xlink:href="ui__microphone_8cpp.html#a4616bedf7c210e2523a1eb417ee2337d" target="_top" xlink:title=" ">
<polygon fill="white" stroke="#666666" points="114.62,-438 8.62,-438 8.62,-418 114.62,-418 114.62,-438"/>
<text xml:space="preserve" text-anchor="middle" x="61.62" y="-424.5" font-family="Helvetica,sans-Serif" font-size="10.00">ui_microphone_enter</text>
</a>
</g>
</g>
<!-- Node2&#45;&gt;Node10 -->
<g id="edge9_Node000002_Node000010" class="edge">
<title>Node2&#45;&gt;Node10</title>
<g id="a_edge9_Node000002_Node000010"><a xlink:title=" ">
<path fill="none" stroke="#63b8ff" d="M176.16,-369.8C162.54,-382.26 142.95,-398.5 123.25,-409 117.02,-412.32 110.12,-415.17 103.26,-417.57"/>
<polygon fill="#63b8ff" stroke="#63b8ff" points="178.19,-372.69 183.08,-363.29 173.4,-367.59 178.19,-372.69"/>
</a>
</g>
</g>
<!-- Node11 -->
<g id="Node000011" class="node">
<title>Node11</title>
<g id="a_Node000011"><a xlink:href="ui__monitor_8cpp.html#af6ff76e4433aec50f283b90fcb0a7999" target="_top" xlink:title=" ">
<polygon fill="white" stroke="#666666" points="105.62,-400 17.62,-400 17.62,-380 105.62,-380 105.62,-400"/>
<text xml:space="preserve" text-anchor="middle" x="61.62" y="-386.5" font-family="Helvetica,sans-Serif" font-size="10.00">ui_monitor_enter</text>
</a>
</g>
</g>
<!-- Node2&#45;&gt;Node11 -->
<g id="edge10_Node000002_Node000011" class="edge">
<title>Node2&#45;&gt;Node11</title>
<g id="a_edge10_Node000002_Node000011"><a xlink:title=" ">
<path fill="none" stroke="#63b8ff" d="M148.22,-365.31C132.07,-369.97 114.18,-375.13 98.95,-379.52"/>
<polygon fill="#63b8ff" stroke="#63b8ff" points="148.98,-368.74 157.61,-362.6 147.04,-362.01 148.98,-368.74"/>
</a>
</g>
</g>
<!-- Node12 -->
<g id="Node000012" class="node">
<title>Node12</title>
<g id="a_Node000012"><a xlink:href="ui__msgchat_8cpp.html#adba7e4ca9be94a18773fc377a731ec9f" target="_top" xlink:title=" ">
<polygon fill="white" stroke="#666666" points="108.25,-362 15,-362 15,-342 108.25,-342 108.25,-362"/>
<text xml:space="preserve" text-anchor="middle" x="61.62" y="-348.5" font-family="Helvetica,sans-Serif" font-size="10.00">ui_msgchat_enter</text>
</a>
</g>
</g>
<!-- Node2&#45;&gt;Node12 -->
<g id="edge11_Node000002_Node000012" class="edge">
<title>Node2&#45;&gt;Node12</title>
<g id="a_edge11_Node000002_Node000012"><a xlink:title=" ">
<path fill="none" stroke="#63b8ff" d="M147.72,-352C134.96,-352 121.16,-352 108.46,-352"/>
<polygon fill="#63b8ff" stroke="#63b8ff" points="147.55,-355.5 157.55,-352 147.55,-348.5 147.55,-355.5"/>
</a>
</g>
</g>
<!-- Node13 -->
<g id="Node000013" class="node">
<title>Node13</title>
<g id="a_Node000013"><a xlink:href="ui__weather_8cpp.html#ae56265753e792108ab2240c459eb95ff" target="_top" xlink:title=" ">
<polygon fill="white" stroke="#666666" points="101.12,-324 22.12,-324 22.12,-304 101.12,-304 101.12,-324"/>
<text xml:space="preserve" text-anchor="middle" x="61.62" y="-310.5" font-family="Helvetica,sans-Serif" font-size="10.00">ui_news_enter</text>
</a>
</g>
</g>
<!-- Node2&#45;&gt;Node13 -->
<g id="edge12_Node000002_Node000013" class="edge">
<title>Node2&#45;&gt;Node13</title>
<g id="a_edge12_Node000002_Node000013"><a xlink:title=" ">
<path fill="none" stroke="#63b8ff" d="M148.22,-338.69C132.07,-334.03 114.18,-328.87 98.95,-324.48"/>
<polygon fill="#63b8ff" stroke="#63b8ff" points="147.04,-341.99 157.61,-341.4 148.98,-335.26 147.04,-341.99"/>
</a>
</g>
</g>
<!-- Node14 -->
<g id="Node000014" class="node">
<title>Node14</title>
<g id="a_Node000014"><a xlink:href="ui__nfc_8cpp.html#ac05804819261cc786f0af09963d66b09" target="_top" xlink:title=" ">
<polygon fill="white" stroke="#666666" points="96.25,-286 27,-286 27,-266 96.25,-266 96.25,-286"/>
<text xml:space="preserve" text-anchor="middle" x="61.62" y="-272.5" font-family="Helvetica,sans-Serif" font-size="10.00">ui_nfc_enter</text>
</a>
</g>
</g>
<!-- Node2&#45;&gt;Node14 -->
<g id="edge13_Node000002_Node000014" class="edge">
<title>Node2&#45;&gt;Node14</title>
<g id="a_edge13_Node000002_Node000014"><a xlink:title=" ">
<path fill="none" stroke="#63b8ff" d="M176.16,-334.2C162.54,-321.74 142.95,-305.5 123.25,-295 114.98,-290.59 105.51,-287.01 96.56,-284.2"/>
<polygon fill="#63b8ff" stroke="#63b8ff" points="173.4,-336.41 183.08,-340.71 178.19,-331.31 173.4,-336.41"/>
</a>
</g>
</g>
<!-- Node15 -->
<g id="Node000015" class="node">
<title>Node15</title>
<g id="a_Node000015"><a xlink:href="ui__pedometer_8cpp.html#a17edce0093b00f3eb37ecc20dc6c08da" target="_top" xlink:title=" ">
<polygon fill="white" stroke="#666666" points="112.38,-248 10.88,-248 10.88,-228 112.38,-228 112.38,-248"/>
<text xml:space="preserve" text-anchor="middle" x="61.62" y="-234.5" font-family="Helvetica,sans-Serif" font-size="10.00">ui_pedometer_enter</text>
</a>
</g>
</g>
<!-- Node2&#45;&gt;Node15 -->
<g id="edge14_Node000002_Node000015" class="edge">
<title>Node2&#45;&gt;Node15</title>
<g id="a_edge14_Node000002_Node000015"><a xlink:title=" ">
<path fill="none" stroke="#63b8ff" d="M184.18,-331.71C172.35,-310.16 150.89,-276.56 123.25,-257 118.39,-253.56 112.88,-250.72 107.21,-248.39"/>
<polygon fill="#63b8ff" stroke="#63b8ff" points="181.01,-333.19 188.76,-340.41 187.2,-329.93 181.01,-333.19"/>
</a>
</g>
</g>
<!-- Node16 -->
<g id="Node000016" class="node">
<title>Node16</title>
<g id="a_Node000016"><a xlink:href="ui__power_8cpp.html#ae245a7236c44d23040aaeb92581f8f30" target="_top" xlink:title=" ">
<polygon fill="white" stroke="#666666" points="102.62,-210 20.62,-210 20.62,-190 102.62,-190 102.62,-210"/>
<text xml:space="preserve" text-anchor="middle" x="61.62" y="-196.5" font-family="Helvetica,sans-Serif" font-size="10.00">ui_power_enter</text>
</a>
</g>
</g>
<!-- Node2&#45;&gt;Node16 -->
<g id="edge15_Node000002_Node000016" class="edge">
<title>Node2&#45;&gt;Node16</title>
<g id="a_edge15_Node000002_Node000016"><a xlink:title=" ">
<path fill="none" stroke="#63b8ff" d="M188.53,-330.58C179.42,-301.19 159.07,-248.67 123.25,-219 117.39,-214.15 110.28,-210.53 103.03,-207.83"/>
<polygon fill="#63b8ff" stroke="#63b8ff" points="185.17,-331.55 191.33,-340.17 191.89,-329.59 185.17,-331.55"/>
</a>
</g>
</g>
<!-- Node2&#45;&gt;Node17 -->
<g id="edge16_Node000002_Node000017" class="edge">
<title>Node2&#45;&gt;Node17</title>
<g id="a_edge16_Node000002_Node000017"><a xlink:title=" ">
<path fill="none" stroke="#63b8ff" d="M190,-330.79C175.33,-259.81 128.48,-34.7 123.25,-29 117.21,-22.41 108.93,-18.09 100.42,-15.26"/>
<polygon fill="#63b8ff" stroke="#63b8ff" points="186.53,-331.26 191.97,-340.35 193.38,-329.84 186.53,-331.26"/>
</a>
</g>
</g>
<!-- Node18 -->
<g id="Node000018" class="node">
<title>Node18</title>
<g id="a_Node000018"><a xlink:href="ui__sensor_8cpp.html#ad68df26031920789f16a3003ac03b82c" target="_top" xlink:title=" ">
<polygon fill="white" stroke="#666666" points="104.12,-172 19.12,-172 19.12,-152 104.12,-152 104.12,-172"/>
<text xml:space="preserve" text-anchor="middle" x="61.62" y="-158.5" font-family="Helvetica,sans-Serif" font-size="10.00">ui_sensor_enter</text>
</a>
</g>
</g>
<!-- Node2&#45;&gt;Node18 -->
<g id="edge17_Node000002_Node000018" class="edge">
<title>Node2&#45;&gt;Node18</title>
<g id="a_edge17_Node000002_Node000018"><a xlink:title=" ">
<path fill="none" stroke="#63b8ff" d="M191.42,-330.76C185.29,-294.76 167.85,-221.73 123.25,-181 117.87,-176.09 111.24,-172.45 104.36,-169.75"/>
<polygon fill="#63b8ff" stroke="#63b8ff" points="187.91,-330.99 192.91,-340.34 194.83,-329.92 187.91,-330.99"/>
</a>
</g>
</g>
<!-- Node19 -->
<g id="Node000019" class="node">
<title>Node19</title>
<g id="a_Node000019"><a xlink:href="ui__sys_8cpp.html#aac2698f451dec6990c348e5dd0357509" target="_top" xlink:title=" ">
<polygon fill="white" stroke="#666666" points="97.38,-134 25.88,-134 25.88,-114 97.38,-114 97.38,-134"/>
<text xml:space="preserve" text-anchor="middle" x="61.62" y="-120.5" font-family="Helvetica,sans-Serif" font-size="10.00">ui_sys_enter</text>
</a>
</g>
</g>
<!-- Node2&#45;&gt;Node19 -->
<g id="edge18_Node000002_Node000019" class="edge">
<title>Node2&#45;&gt;Node19</title>
<g id="a_edge18_Node000002_Node000019"><a xlink:title=" ">
<path fill="none" stroke="#63b8ff" d="M193.24,-330.26C189.86,-288.12 176.45,-194.92 123.25,-143 116.3,-136.22 106.97,-131.86 97.71,-129.05"/>
<polygon fill="#63b8ff" stroke="#63b8ff" points="189.74,-330.34 193.9,-340.09 196.72,-329.87 189.74,-330.34"/>
</a>
</g>
</g>
<!-- Node20 -->
<g id="Node000020" class="node">
<title>Node20</title>
<g id="a_Node000020"><a xlink:href="ui__weather_8cpp.html#ab08418e043c337d7b37b9d486bd75211" target="_top" xlink:title=" ">
<polygon fill="white" stroke="#666666" points="106.75,-96 16.5,-96 16.5,-76 106.75,-76 106.75,-96"/>
<text xml:space="preserve" text-anchor="middle" x="61.62" y="-82.5" font-family="Helvetica,sans-Serif" font-size="10.00">ui_weather_enter</text>
</a>
</g>
</g>
<!-- Node2&#45;&gt;Node20 -->
<g id="edge19_Node000002_Node000020" class="edge">
<title>Node2&#45;&gt;Node20</title>
<g id="a_edge19_Node000002_Node000020"><a xlink:title=" ">
<path fill="none" stroke="#63b8ff" d="M190.85,-330.44C181.61,-276.51 155.22,-137.73 123.25,-105 118.7,-100.34 113.03,-96.83 106.99,-94.17"/>
<polygon fill="#63b8ff" stroke="#63b8ff" points="187.37,-330.9 192.48,-340.18 194.28,-329.74 187.37,-330.9"/>
</a>
</g>
</g>
<!-- Node21 -->
<g id="Node000021" class="node">
<title>Node21</title>
<g id="a_Node000021"><a xlink:href="ui__wireless_8cpp.html#ad721a9d43e91608fd0e5d5aa07b5a7a0" target="_top" xlink:title=" ">
<polygon fill="white" stroke="#666666" points="107.5,-58 15.75,-58 15.75,-38 107.5,-38 107.5,-58"/>
<text xml:space="preserve" text-anchor="middle" x="61.62" y="-44.5" font-family="Helvetica,sans-Serif" font-size="10.00">ui_wireless_enter</text>
</a>
</g>
</g>
<!-- Node2&#45;&gt;Node21 -->
<g id="edge20_Node000002_Node000021" class="edge">
<title>Node2&#45;&gt;Node21</title>
<g id="a_edge20_Node000002_Node000021"><a xlink:title=" ">
<path fill="none" stroke="#63b8ff" d="M190.26,-330.46C178.04,-267.43 141.7,-86.57 123.25,-67 118.94,-62.42 113.54,-58.95 107.75,-56.3"/>
<polygon fill="#63b8ff" stroke="#63b8ff" points="186.81,-331.07 192.14,-340.23 193.69,-329.75 186.81,-331.07"/>
</a>
</g>
</g>
</g>
</svg>

<g id="navigator" transform="translate(0 0)" fill="#404254">
  <rect fill="#f2f5e9" fill-opacity="0.5" stroke="#606060" stroke-width=".5" x="0" y="0" width="60" height="60"/>
  <use id="zoomplus" xlink:href="#zoomPlus" x="17" y="9" onmousedown="handleZoom(evt,'in')"/>
  <use id="zoomminus" xlink:href="#zoomMin" x="42" y="9" onmousedown="handleZoom(evt,'out')"/>
  <use id="reset" xlink:href="#resetDef" x="30" y="36" onmousedown="handleReset()"/>
   <use id="arrowup" xlink:href="#arrowUp" x="0" y="0" onmousedown="handlePan(0,-1)"/>
  <use id="arrowright" xlink:href="#arrowRight" x="0" y="0" onmousedown="handlePan(1,0)"/>
  <use id="arrowdown" xlink:href="#arrowDown" x="0" y="0" onmousedown="handlePan(0,1)"/>
  <use id="arrowleft" xlink:href="#arrowLeft" x="0" y="0" onmousedown="handlePan(-1,0)"/>
</g>
<svg viewBox="0 0 15 15" width="100%" height="30px" preserveAspectRatio="xMaxYMin meet">
 <g id="arrow_out" transform="scale(0.3 0.3)">
  <a xlink:href="ui__define_8h_a1339595d52d820ddf74ce6a031bcbfa7_icgraph_org.svg" target="_base">
   <rect id="button" ry="5" rx="5" y="6" x="6" height="38" width="38"
        fill="#f2f5e9" fill-opacity="0.5" stroke="#606060" stroke-width="1.0"/>
   <path id="arrow"
     d="M 11.500037,31.436501 C 11.940474,20.09759 22.043105,11.32322 32.158766,21.979434 L 37.068811,17.246167 C 37.068811,17.246167 37.088388,32 37.088388,32 L 22.160133,31.978069 C 22.160133,31.978069 26.997745,27.140456 26.997745,27.140456 C 18.528582,18.264221 13.291696,25.230495 11.500037,31.436501 z"
     style="fill:#404040;"/>
  </a>
 </g>
</svg>

<style type='text/css'>
<![CDATA[
[data-mouse-over-selected='false'] { opacity: 0.7; }
[data-mouse-over-selected='true']  { opacity: 1.0; }
]]>
</style>
<script type="application/ecmascript"><![CDATA[
document.addEventListener('DOMContentLoaded', (event) => {
  highlightEdges();
  highlightAdjacentNodes();
});
]]></script>
</svg>
