<?xml version="1.0" encoding="UTF-8" standalone="no"?>
<!DOCTYPE svg PUBLIC "-//W3C//DTD SVG 1.1//EN"
 "http://www.w3.org/Graphics/SVG/1.1/DTD/svg11.dtd">
<!-- Generated by graphviz version 14.1.5 (0)
 -->
<!-- Title: cache_is_fresh Pages: 1 -->
<svg width="647pt" height="66pt"
 viewBox="0.00 0.00 647.00 66.00" xmlns="http://www.w3.org/2000/svg" xmlns:xlink="http://www.w3.org/1999/xlink">
<g id="graph0" class="graph" transform="scale(1 1) rotate(0) translate(4 62)">
<title>cache_is_fresh</title>
<!-- Node1 -->
<g id="Node000001" class="node">
<title>Node1</title>
<g id="a_Node000001"><a xlink:title=" ">
<polygon fill="#999999" stroke="#666666" points="639,-39 557,-39 557,-19 639,-19 639,-39"/>
<text xml:space="preserve" text-anchor="middle" x="598" y="-25.5" font-family="Helvetica,sans-Serif" font-size="10.00">cache_is_fresh</text>
</a>
</g>
</g>
<!-- Node2 -->
<g id="Node000002" class="node">
<title>Node2</title>
<g id="a_Node000002"><a xlink:href="ui__weather_8cpp.html#a1bcc01074084ef121e3d52237a1ea879" target="_top" xlink:title=" ">
<polygon fill="white" stroke="#666666" points="422.5,-58 375.75,-58 375.75,-38 422.5,-38 422.5,-58"/>
<text xml:space="preserve" text-anchor="middle" x="399.12" y="-44.5" font-family="Helvetica,sans-Serif" font-size="10.00">poll_cb</text>
</a>
</g>
</g>
<!-- Node1&#45;&gt;Node2 -->
<g id="edge1_Node000001_Node000002" class="edge">
<title>Node1&#45;&gt;Node2</title>
<g id="a_edge1_Node000001_Node000002"><a xlink:title=" ">
<path fill="none" stroke="#63b8ff" d="M545.34,-33.99C505.61,-37.82 452.64,-42.93 422.89,-45.8"/>
<polygon fill="#63b8ff" stroke="#63b8ff" points="545.56,-37.48 555.18,-33.04 544.89,-30.51 545.56,-37.48"/>
</a>
</g>
</g>
<!-- Node8 -->
<g id="Node000008" class="node">
<title>Node8</title>
<g id="a_Node000008"><a xlink:href="ui__weather_8cpp.html#a203591f09b707084b5b5bafff4dd3d8f" target="_top" xlink:title=" ">
<polygon fill="white" stroke="#666666" points="521,-20 458.5,-20 458.5,0 521,0 521,-20"/>
<text xml:space="preserve" text-anchor="middle" x="489.75" y="-6.5" font-family="Helvetica,sans-Serif" font-size="10.00">start_fetch</text>
</a>
</g>
</g>
<!-- Node1&#45;&gt;Node8 -->
<g id="edge7_Node000001_Node000008" class="edge">
<title>Node1&#45;&gt;Node8</title>
<g id="a_edge7_Node000001_Node000008"><a xlink:title=" ">
<path fill="none" stroke="#63b8ff" d="M545.35,-19.76C537.08,-18.28 528.76,-16.8 521.19,-15.44"/>
<polygon fill="#63b8ff" stroke="#63b8ff" points="544.58,-23.18 555.04,-21.5 545.81,-16.29 544.58,-23.18"/>
</a>
</g>
</g>
<!-- Node3 -->
<g id="Node000003" class="node">
<title>Node3</title>
<g id="a_Node000003"><a xlink:href="ui__weather_8cpp.html#a4c89be46e26d5910507b34c3aaf2b7af" target="_top" xlink:title=" ">
<polygon fill="white" stroke="#666666" points="339.75,-39 257.75,-39 257.75,-19 339.75,-19 339.75,-39"/>
<text xml:space="preserve" text-anchor="middle" x="298.75" y="-25.5" font-family="Helvetica,sans-Serif" font-size="10.00">ensure_running</text>
</a>
</g>
</g>
<!-- Node2&#45;&gt;Node3 -->
<g id="edge2_Node000002_Node000003" class="edge">
<title>Node2&#45;&gt;Node3</title>
<g id="a_edge2_Node000002_Node000003"><a xlink:title=" ">
<path fill="none" stroke="#63b8ff" d="M364.13,-41.43C356.42,-39.94 348.14,-38.35 340.19,-36.81"/>
<polygon fill="#63b8ff" stroke="#63b8ff" points="363.34,-44.85 373.82,-43.31 364.67,-37.97 363.34,-44.85"/>
</a>
</g>
</g>
<!-- Node4 -->
<g id="Node000004" class="node">
<title>Node4</title>
<g id="a_Node000004"><a xlink:href="ui__weather_8cpp.html#a2859e756e23c8022ebd1d38d5a008bbf" target="_top" xlink:title=" ">
<polygon fill="white" stroke="#666666" points="216.12,-58 131.88,-58 131.88,-38 216.12,-38 216.12,-58"/>
<text xml:space="preserve" text-anchor="middle" x="174" y="-44.5" font-family="Helvetica,sans-Serif" font-size="10.00">ui_news_attach</text>
</a>
</g>
</g>
<!-- Node3&#45;&gt;Node4 -->
<g id="edge3_Node000003_Node000004" class="edge">
<title>Node3&#45;&gt;Node4</title>
<g id="a_edge3_Node000003_Node000004"><a xlink:title=" ">
<path fill="none" stroke="#63b8ff" d="M246.5,-36.93C236.52,-38.48 226.17,-40.08 216.55,-41.57"/>
<polygon fill="#63b8ff" stroke="#63b8ff" points="246.71,-40.44 256.06,-35.45 245.64,-33.52 246.71,-40.44"/>
</a>
</g>
</g>
<!-- Node6 -->
<g id="Node000006" class="node">
<title>Node6</title>
<g id="a_Node000006"><a xlink:href="ui__weather_8cpp.html#af9d8a78c8e97cdf919f675b9862f02a7" target="_top" xlink:title=" ">
<polygon fill="white" stroke="#666666" points="221.75,-20 126.25,-20 126.25,0 221.75,0 221.75,-20"/>
<text xml:space="preserve" text-anchor="middle" x="174" y="-6.5" font-family="Helvetica,sans-Serif" font-size="10.00">ui_weather_attach</text>
</a>
</g>
</g>
<!-- Node3&#45;&gt;Node6 -->
<g id="edge5_Node000003_Node000006" class="edge">
<title>Node3&#45;&gt;Node6</title>
<g id="a_edge5_Node000003_Node000006"><a xlink:title=" ">
<path fill="none" stroke="#63b8ff" d="M246.39,-21.05C238.35,-19.81 230.06,-18.52 222.11,-17.29"/>
<polygon fill="#63b8ff" stroke="#63b8ff" points="245.64,-24.48 256.06,-22.55 246.71,-17.56 245.64,-24.48"/>
</a>
</g>
</g>
<!-- Node5 -->
<g id="Node000005" class="node">
<title>Node5</title>
<g id="a_Node000005"><a xlink:href="ui__weather_8cpp.html#ae56265753e792108ab2240c459eb95ff" target="_top" xlink:title=" ">
<polygon fill="white" stroke="#666666" points="84.62,-58 5.62,-58 5.62,-38 84.62,-38 84.62,-58"/>
<text xml:space="preserve" text-anchor="middle" x="45.12" y="-44.5" font-family="Helvetica,sans-Serif" font-size="10.00">ui_news_enter</text>
</a>
</g>
</g>
<!-- Node4&#45;&gt;Node5 -->
<g id="edge4_Node000004_Node000005" class="edge">
<title>Node4&#45;&gt;Node5</title>
<g id="a_edge4_Node000004_Node000005"><a xlink:title=" ">
<path fill="none" stroke="#63b8ff" d="M120.26,-48C108.36,-48 95.95,-48 84.75,-48"/>
<polygon fill="#63b8ff" stroke="#63b8ff" points="119.94,-51.5 129.94,-48 119.94,-44.5 119.94,-51.5"/>
</a>
</g>
</g>
<!-- Node7 -->
<g id="Node000007" class="node">
<title>Node7</title>
<g id="a_Node000007"><a xlink:href="ui__weather_8cpp.html#ab08418e043c337d7b37b9d486bd75211" target="_top" xlink:title=" ">
<polygon fill="white" stroke="#666666" points="90.25,-20 0,-20 0,0 90.25,0 90.25,-20"/>
<text xml:space="preserve" text-anchor="middle" x="45.12" y="-6.5" font-family="Helvetica,sans-Serif" font-size="10.00">ui_weather_enter</text>
</a>
</g>
</g>
<!-- Node6&#45;&gt;Node7 -->
<g id="edge6_Node000006_Node000007" class="edge">
<title>Node6&#45;&gt;Node7</title>
<g id="a_edge6_Node000006_Node000007"><a xlink:title=" ">
<path fill="none" stroke="#63b8ff" d="M114.47,-10C106.4,-10 98.22,-10 90.47,-10"/>
<polygon fill="#63b8ff" stroke="#63b8ff" points="114.24,-13.5 124.24,-10 114.24,-6.5 114.24,-13.5"/>
</a>
</g>
</g>
<!-- Node8&#45;&gt;Node2 -->
<g id="edge9_Node000008_Node000002" class="edge">
<title>Node8&#45;&gt;Node2</title>
<g id="a_edge9_Node000008_Node000002"><a xlink:title=" ">
<path fill="none" stroke="#63b8ff" d="M453.98,-24.91C443.5,-29.4 432.27,-34.22 422.79,-38.28"/>
<polygon fill="#63b8ff" stroke="#63b8ff" points="455.33,-28.14 463.14,-20.98 452.57,-21.7 455.33,-28.14"/>
</a>
</g>
</g>
<!-- Node8&#45;&gt;Node3 -->
<g id="edge8_Node000008_Node000003" class="edge">
<title>Node8&#45;&gt;Node3</title>
<g id="a_edge8_Node000008_Node000003"><a xlink:title=" ">
<path fill="none" stroke="#63b8ff" d="M447.21,-14.18C415.3,-17.38 371.49,-21.79 339.93,-24.96"/>
<polygon fill="#63b8ff" stroke="#63b8ff" points="447.28,-17.69 456.88,-13.2 446.58,-10.72 447.28,-17.69"/>
</a>
</g>
</g>
</g>
</svg>
