<?xml version="1.0" encoding="UTF-8" standalone="no"?>
<!DOCTYPE svg PUBLIC "-//W3C//DTD SVG 1.1//EN"
 "http://www.w3.org/Graphics/SVG/1.1/DTD/svg11.dtd">
<!-- Generated by graphviz version 14.1.5 (0)
 -->
<!-- Title: ui_calendar_enter Pages: 1 -->
<!--zoomable 180 -->

<svg id="main" version="1.1" xmlns="http://www.w3.org/2000/svg" xmlns:xlink="http://www.w3.org/1999/xlink" xml:space="preserve" onload="init(evt)">

<style type="text/css"><![CDATA[
.node, .edge {opacity: 0.7;}
.node.selected, .edge.selected {opacity: 1;}
.edge:hover path { stroke: red; }
.edge:hover polygon { stroke: red; fill: red; }
]]></style>

<defs>
  <circle id="rim" cx="0" cy="0" r="7"/>
  <circle id="rim2" cx="0" cy="0" r="3.5"/>
  <g id="zoomPlus">
    <use xlink:href="#rim" fill="#404040"><set attributeName="fill" to="#808080" begin="zoomplus.mouseover" end="zoomplus.mouseout"/></use>
    <path d="M-4,0h8M0,-4v8" fill="none" stroke="white" stroke-width="1.5" pointer-events="none"/>
  </g>
  <g id="zoomMin">
    <use xlink:href="#rim" fill="#404040"><set attributeName="fill" to="#808080" begin="zoomminus.mouseover" end="zoomminus.mouseout"/></use>
    <path d="M-4,0h8" fill="none" stroke="white" stroke-width="1.5" pointer-events="none"/>
  </g>
  <g id="arrowUp" transform="translate(30 24)">
    <use xlink:href="#rim"/>
    <path pointer-events="none" fill="none" stroke="white" stroke-width="1.5" d="M0,-3.0v7 M-2.5,-0.5L0,-3.0L2.5,-0.5"/>
  </g>
  <g id="arrowRight" transform="rotate(90) translate(36 -43)">
    <use xlink:href="#rim"/>
    <path pointer-events="none" fill="none" stroke="white" stroke-width="1.5" d="M0,-3.0v7 M-2.5,-0.5L0,-3.0L2.5,-0.5"/>
  </g>
  <g id="arrowDown" transform="rotate(180) translate(-30 -48)">
    <use xlink:href="#rim"/>
    <path pointer-events="none" fill="none" stroke="white" stroke-width="1.5" d="M0,-3.0v7 M-2.5,-0.5L0,-3.0L2.5,-0.5"/>
  </g>
  <g id="arrowLeft" transform="rotate(270) translate(-36 17)">
    <use xlink:href="#rim"/>
    <path pointer-events="none" fill="none" stroke="white" stroke-width="1.5" d="M0,-3.0v7 M-2.5,-0.5L0,-3.0L2.5,-0.5"/>
  </g>
  <g id="resetDef">
    <use xlink:href="#rim2" fill="#404040"><set attributeName="fill" to="#808080" begin="reset.mouseover" end="reset.mouseout"/></use>
  </g>
</defs>
<script type="application/ecmascript">
var viewWidth = 790;
var viewHeight = 180;
var sectionId = 'dynsection-2';
</script>
<script type="application/ecmascript" xlink:href="svg.min.js"/>
<svg id="graph" class="graph">
<g id="viewport">
<title>ui_calendar_enter</title>
<!-- Node1 -->
<g id="Node000001" class="node">
<title>Node1</title>
<g id="a_Node000001"><a xlink:title=" ">
<polygon fill="#999999" stroke="#666666" points="92.5,-77 0,-77 0,-57 92.5,-57 92.5,-77"/>
<text xml:space="preserve" text-anchor="middle" x="46.25" y="-63.5" font-family="Helvetica,sans-Serif" font-size="10.00">ui_calendar_enter</text>
</a>
</g>
</g>
<!-- Node2 -->
<g id="Node000002" class="node">
<title>Node2</title>
<g id="a_Node000002"><a xlink:href="ui__audio_8cpp.html#a281e8b49ab313401f21f32672b2fe0a6" target="_top" xlink:title=" ">
<polygon fill="white" stroke="#666666" points="231.5,-134 128.5,-134 128.5,-114 231.5,-114 231.5,-134"/>
<text xml:space="preserve" text-anchor="middle" x="180" y="-120.5" font-family="Helvetica,sans-Serif" font-size="10.00">back_event_handler</text>
</a>
</g>
</g>
<!-- Node1&#45;&gt;Node2 -->
<g id="edge1_Node000001_Node000002" class="edge">
<title>Node1&#45;&gt;Node2</title>
<g id="a_edge1_Node000001_Node000002"><a xlink:title=" ">
<path fill="none" stroke="#63b8ff" d="M71.41,-77.45C91.94,-86.33 121.63,-99.18 144.63,-109.13"/>
<polygon fill="#63b8ff" stroke="#63b8ff" points="143.03,-112.25 153.6,-113.01 145.81,-105.83 143.03,-112.25"/>
</a>
</g>
</g>
<!-- Node7 -->
<g id="Node000007" class="node">
<title>Node7</title>
<g id="a_Node000007"><a xlink:href="ui__tools_8cpp.html#a7cacb0af0f83c41b7d8bfe984d778b5e" target="_top" xlink:title=" ">
<polygon fill="white" stroke="#666666" points="216.12,-77 143.88,-77 143.88,-57 216.12,-57 216.12,-77"/>
<text xml:space="preserve" text-anchor="middle" x="180" y="-63.5" font-family="Helvetica,sans-Serif" font-size="10.00">create_menu</text>
</a>
</g>
</g>
<!-- Node1&#45;&gt;Node7 -->
<g id="edge6_Node000001_Node000007" class="edge">
<title>Node1&#45;&gt;Node7</title>
<g id="a_edge6_Node000001_Node000007"><a xlink:title=" ">
<path fill="none" stroke="#63b8ff" d="M92.96,-67C105.71,-67 119.57,-67 132.37,-67"/>
<polygon fill="#63b8ff" stroke="#63b8ff" points="132.24,-70.5 142.24,-67 132.24,-63.5 132.24,-70.5"/>
</a>
</g>
</g>
<!-- Node13 -->
<g id="Node000013" class="node">
<title>Node13</title>
<g id="a_Node000013"><a xlink:href="hal__interface_8cpp.html#aade54ac2e175dcf91cd574701376e9be" target="_top" xlink:title="Get the current date and time as a string.">
<polygon fill="white" stroke="#666666" points="227.75,-30 132.25,-30 132.25,-10 227.75,-10 227.75,-30"/>
<text xml:space="preserve" text-anchor="middle" x="180" y="-16.5" font-family="Helvetica,sans-Serif" font-size="10.00">hw_get_date_time</text>
</a>
</g>
</g>
<!-- Node1&#45;&gt;Node13 -->
<g id="edge14_Node000001_Node000013" class="edge">
<title>Node1&#45;&gt;Node13</title>
<g id="a_edge14_Node000001_Node000013"><a xlink:title=" ">
<path fill="none" stroke="#63b8ff" d="M76.49,-56.57C94.91,-50 118.94,-41.43 139.1,-34.23"/>
<polygon fill="#63b8ff" stroke="#63b8ff" points="140.17,-37.57 148.42,-30.91 137.82,-30.97 140.17,-37.57"/>
</a>
</g>
</g>
<!-- Node3 -->
<g id="Node000003" class="node">
<title>Node3</title>
<g id="a_Node000003"><a xlink:href="hal__interface_8cpp.html#ac575088d0288d21bd87b64145ce1df7b" target="_top" xlink:title="Stop the music playback.">
<polygon fill="white" stroke="#666666" points="370.88,-172 276.12,-172 276.12,-152 370.88,-152 370.88,-172"/>
<text xml:space="preserve" text-anchor="middle" x="323.5" y="-158.5" font-family="Helvetica,sans-Serif" font-size="10.00">hw_set_play_stop</text>
</a>
</g>
</g>
<!-- Node2&#45;&gt;Node3 -->
<g id="edge2_Node000002_Node000003" class="edge">
<title>Node2&#45;&gt;Node3</title>
<g id="a_edge2_Node000002_Node000003"><a xlink:title=" ">
<path fill="none" stroke="#63b8ff" d="M220.04,-134.48C236.28,-138.85 255.33,-143.96 272.57,-148.59"/>
<polygon fill="#63b8ff" stroke="#63b8ff" points="271.56,-151.94 282.13,-151.16 273.38,-145.18 271.56,-151.94"/>
</a>
</g>
</g>
<!-- Node5 -->
<g id="Node000005" class="node">
<title>Node5</title>
<g id="a_Node000005"><a xlink:href="ui__main_8cpp.html#aacbd3ab5885aa663bfae18f8ba403d14" target="_top" xlink:title=" ">
<polygon fill="white" stroke="#666666" points="635,-134 566.5,-134 566.5,-114 635,-114 635,-134"/>
<text xml:space="preserve" text-anchor="middle" x="600.75" y="-120.5" font-family="Helvetica,sans-Serif" font-size="10.00">menu_show</text>
</a>
</g>
</g>
<!-- Node2&#45;&gt;Node5 -->
<g id="edge4_Node000002_Node000005" class="edge">
<title>Node2&#45;&gt;Node5</title>
<g id="a_edge4_Node000002_Node000005"><a xlink:title=" ">
<path fill="none" stroke="#63b8ff" d="M231.93,-124C314.44,-124 476.02,-124 554.64,-124"/>
<polygon fill="#63b8ff" stroke="#63b8ff" points="554.55,-127.5 564.55,-124 554.55,-120.5 554.55,-127.5"/>
</a>
</g>
</g>
<!-- Node4 -->
<g id="Node000004" class="node">
<title>Node4</title>
<g id="a_Node000004"><a xlink:href="hal__interface_8cpp.html#a3c8132bf5fffb69621ca107c488148f4" target="_top" xlink:title="Check if the music player is running.">
<polygon fill="white" stroke="#666666" points="512.5,-172 415.5,-172 415.5,-152 512.5,-152 512.5,-172"/>
<text xml:space="preserve" text-anchor="middle" x="464" y="-158.5" font-family="Helvetica,sans-Serif" font-size="10.00">hw_player_running</text>
</a>
</g>
</g>
<!-- Node3&#45;&gt;Node4 -->
<g id="edge3_Node000003_Node000004" class="edge">
<title>Node3&#45;&gt;Node4</title>
<g id="a_edge3_Node000003_Node000004"><a xlink:title=" ">
<path fill="none" stroke="#63b8ff" d="M371,-162C381.62,-162 393.04,-162 404.09,-162"/>
<polygon fill="#63b8ff" stroke="#63b8ff" points="403.92,-165.5 413.92,-162 403.92,-158.5 403.92,-165.5"/>
</a>
</g>
</g>
<!-- Node6 -->
<g id="Node000006" class="node">
<title>Node6</title>
<g id="a_Node000006"><a xlink:href="ui__main_8cpp.html#a4f5bd886e20577ce1b85532aea982b14" target="_top" xlink:title=" ">
<polygon fill="white" stroke="#666666" points="782.25,-134 689,-134 689,-114 782.25,-114 782.25,-134"/>
<text xml:space="preserve" text-anchor="middle" x="735.62" y="-120.5" font-family="Helvetica,sans-Serif" font-size="10.00">set_default_group</text>
</a>
</g>
</g>
<!-- Node5&#45;&gt;Node6 -->
<g id="edge5_Node000005_Node000006" class="edge">
<title>Node5&#45;&gt;Node6</title>
<g id="a_edge5_Node000005_Node000006"><a xlink:title=" ">
<path fill="none" stroke="#63b8ff" d="M635.28,-124C648.02,-124 662.92,-124 677.25,-124"/>
<polygon fill="#63b8ff" stroke="#63b8ff" points="677.05,-127.5 687.05,-124 677.05,-120.5 677.05,-127.5"/>
</a>
</g>
</g>
<!-- Node8 -->
<g id="Node000008" class="node">
<title>Node8</title>
<g id="a_Node000008"><a xlink:href="ui__tools_8cpp.html#a1339595d52d820ddf74ce6a031bcbfa7" target="_top" xlink:title=" ">
<polygon fill="white" stroke="#666666" points="376.88,-96 270.12,-96 270.12,-76 376.88,-76 376.88,-96"/>
<text xml:space="preserve" text-anchor="middle" x="323.5" y="-82.5" font-family="Helvetica,sans-Serif" font-size="10.00">create_radius_button</text>
</a>
</g>
</g>
<!-- Node7&#45;&gt;Node8 -->
<g id="edge7_Node000007_Node000008" class="edge">
<title>Node7&#45;&gt;Node8</title>
<g id="a_edge7_Node000007_Node000008"><a xlink:title=" ">
<path fill="none" stroke="#63b8ff" d="M216.34,-71.75C229.19,-73.47 244.14,-75.48 258.7,-77.43"/>
<polygon fill="#63b8ff" stroke="#63b8ff" points="257.83,-80.85 268.21,-78.71 258.76,-73.91 257.83,-80.85"/>
</a>
</g>
</g>
<!-- Node9 -->
<g id="Node000009" class="node">
<title>Node9</title>
<g id="a_Node000009"><a xlink:href="ui__power_8cpp.html#ad129baf98d68c607824ee54981ef02a0" target="_top" xlink:title=" ">
<polygon fill="white" stroke="#666666" points="491.88,-77 436.12,-77 436.12,-57 491.88,-57 491.88,-77"/>
<text xml:space="preserve" text-anchor="middle" x="464" y="-63.5" font-family="Helvetica,sans-Serif" font-size="10.00">event_cb</text>
</a>
</g>
</g>
<!-- Node7&#45;&gt;Node9 -->
<g id="edge13_Node000007_Node000009" class="edge">
<title>Node7&#45;&gt;Node9</title>
<g id="a_edge13_Node000007_Node000009"><a xlink:title=" ">
<path fill="none" stroke="#63b8ff" d="M216.43,-67C269.63,-67 369.73,-67 424.61,-67"/>
<polygon fill="#63b8ff" stroke="#63b8ff" points="424.41,-70.5 434.41,-67 424.41,-63.5 424.41,-70.5"/>
</a>
</g>
</g>
<!-- Node8&#45;&gt;Node9 -->
<g id="edge8_Node000008_Node000009" class="edge">
<title>Node8&#45;&gt;Node9</title>
<g id="a_edge8_Node000008_Node000009"><a xlink:title=" ">
<path fill="none" stroke="#63b8ff" d="M377.26,-78.76C393.06,-76.59 410.08,-74.26 424.76,-72.25"/>
<polygon fill="#63b8ff" stroke="#63b8ff" points="425.03,-75.74 434.46,-70.92 424.08,-68.81 425.03,-75.74"/>
</a>
</g>
</g>
<!-- Node9&#45;&gt;Node5 -->
<g id="edge12_Node000009_Node000005" class="edge">
<title>Node9&#45;&gt;Node5</title>
<g id="a_edge12_Node000009_Node000005"><a xlink:title=" ">
<path fill="none" stroke="#63b8ff" d="M486.79,-77.44C503.53,-85.33 527.3,-96.26 548.5,-105 552.12,-106.49 555.9,-108 559.7,-109.47"/>
<polygon fill="#63b8ff" stroke="#63b8ff" points="558.33,-112.69 568.92,-112.97 560.82,-106.15 558.33,-112.69"/>
</a>
</g>
</g>
<!-- Node10 -->
<g id="Node000010" class="node">
<title>Node10</title>
<g id="a_Node000010"><a xlink:href="hal__interface_8cpp.html#aa2b943cf1bdd2889e3ac76016e4ae359" target="_top" xlink:title="Shutdown the hardware.">
<polygon fill="white" stroke="#666666" points="638.75,-96 562.75,-96 562.75,-76 638.75,-76 638.75,-96"/>
<text xml:space="preserve" text-anchor="middle" x="600.75" y="-82.5" font-family="Helvetica,sans-Serif" font-size="10.00">hw_shutdown</text>
</a>
</g>
</g>
<!-- Node9&#45;&gt;Node10 -->
<g id="edge9_Node000009_Node000010" class="edge">
<title>Node9&#45;&gt;Node10</title>
<g id="a_edge9_Node000009_Node000010"><a xlink:title=" ">
<path fill="none" stroke="#63b8ff" d="M492.27,-70.84C509.11,-73.22 531.21,-76.34 550.99,-79.12"/>
<polygon fill="#63b8ff" stroke="#63b8ff" points="550.42,-82.58 560.81,-80.51 551.4,-75.65 550.42,-82.58"/>
</a>
</g>
</g>
<!-- Node11 -->
<g id="Node000011" class="node">
<title>Node11</title>
<g id="a_Node000011"><a xlink:href="hal__interface_8cpp.html#ac344d549b7ceb0868bba143a57470620" target="_top" xlink:title="Put the hardware into sleep mode.">
<polygon fill="white" stroke="#666666" points="629.38,-58 572.12,-58 572.12,-38 629.38,-38 629.38,-58"/>
<text xml:space="preserve" text-anchor="middle" x="600.75" y="-44.5" font-family="Helvetica,sans-Serif" font-size="10.00">hw_sleep</text>
</a>
</g>
</g>
<!-- Node9&#45;&gt;Node11 -->
<g id="edge10_Node000009_Node000011" class="edge">
<title>Node9&#45;&gt;Node11</title>
<g id="a_edge10_Node000009_Node000011"><a xlink:title=" ">
<path fill="none" stroke="#63b8ff" d="M492.27,-63.16C511.96,-60.38 538.82,-56.59 560.77,-53.5"/>
<polygon fill="#63b8ff" stroke="#63b8ff" points="561.15,-56.98 570.56,-52.12 560.17,-50.05 561.15,-56.98"/>
</a>
</g>
</g>
<!-- Node12 -->
<g id="Node000012" class="node">
<title>Node12</title>
<g id="a_Node000012"><a xlink:href="ui__main_8cpp.html#a0c56b2d3230d828cbfe6624bb30c0f24" target="_top" xlink:title=" ">
<polygon fill="white" stroke="#666666" points="653,-20 548.5,-20 548.5,0 653,0 653,-20"/>
<text xml:space="preserve" text-anchor="middle" x="600.75" y="-6.5" font-family="Helvetica,sans-Serif" font-size="10.00">LV_IMG_DECLARE</text>
</a>
</g>
</g>
<!-- Node9&#45;&gt;Node12 -->
<g id="edge11_Node000009_Node000012" class="edge">
<title>Node9&#45;&gt;Node12</title>
<g id="a_edge11_Node000009_Node000012"><a xlink:title=" ">
<path fill="none" stroke="#63b8ff" d="M486.79,-56.56C503.53,-48.67 527.3,-37.74 548.5,-29 552.12,-27.51 555.9,-26 559.7,-24.53"/>
<polygon fill="#63b8ff" stroke="#63b8ff" points="560.82,-27.85 568.92,-21.03 558.33,-21.31 560.82,-27.85"/>
</a>
</g>
</g>
<!-- Node14 -->
<g id="Node000014" class="node">
<title>Node14</title>
<g id="a_Node000014"><a xlink:href="hal__interface_8cpp.html#a0962c4ad5380756e98f3fd31f5cf9978" target="_top" xlink:title="Get the online status of the hardware devices.">
<polygon fill="white" stroke="#666666" points="379.5,-20 267.5,-20 267.5,0 379.5,0 379.5,-20"/>
<text xml:space="preserve" text-anchor="middle" x="323.5" y="-6.5" font-family="Helvetica,sans-Serif" font-size="10.00">hw_get_device_online</text>
</a>
</g>
</g>
<!-- Node13&#45;&gt;Node14 -->
<g id="edge15_Node000013_Node000014" class="edge">
<title>Node13&#45;&gt;Node14</title>
<g id="a_edge15_Node000013_Node000014"><a xlink:title=" ">
<path fill="none" stroke="#63b8ff" d="M228.12,-16.67C237.03,-16.04 246.52,-15.37 255.9,-14.71"/>
<polygon fill="#63b8ff" stroke="#63b8ff" points="256.02,-18.21 265.74,-14.01 255.52,-11.22 256.02,-18.21"/>
</a>
</g>
</g>
</g>
</svg>

<g id="navigator" transform="translate(0 0)" fill="#404254">
  <rect fill="#f2f5e9" fill-opacity="0.5" stroke="#606060" stroke-width=".5" x="0" y="0" width="60" height="60"/>
  <use id="zoomplus" xlink:href="#zoomPlus" x="17" y="9" onmousedown="handleZoom(evt,'in')"/>
  <use id="zoomminus" xlink:href="#zoomMin" x="42" y="9" onmousedown="handleZoom(evt,'out')"/>
  <use id="reset" xlink:href="#resetDef" x="30" y="36" onmousedown="handleReset()"/>
   <use id="arrowup" xlink:href="#arrowUp" x="0" y="0" onmousedown="handlePan(0,-1)"/>
  <use id="arrowright" xlink:href="#arrowRight" x="0" y="0" onmousedown="handlePan(1,0)"/>
  <use id="arrowdown" xlink:href="#arrowDown" x="0" y="0" onmousedown="handlePan(0,1)"/>
  <use id="arrowleft" xlink:href="#arrowLeft" x="0" y="0" onmousedown="handlePan(-1,0)"/>
</g>
<svg viewBox="0 0 15 15" width="100%" height="30px" preserveAspectRatio="xMaxYMin meet">
 <g id="arrow_out" transform="scale(0.3 0.3)">
  <a xlink:href="ui__calendar_8cpp_ae9a477e1b5f0ec370c33467225be43ca_cgraph_org.svg" target="_base">
   <rect id="button" ry="5" rx="5" y="6" x="6" height="38" width="38"
        fill="#f2f5e9" fill-opacity="0.5" stroke="#606060" stroke-width="1.0"/>
   <path id="arrow"
     d="M 11.500037,31.436501 C 11.940474,20.09759 22.043105,11.32322 32.158766,21.979434 L 37.068811,17.246167 C 37.068811,17.246167 37.088388,32 37.088388,32 L 22.160133,31.978069 C 22.160133,31.978069 26.997745,27.140456 26.997745,27.140456 C 18.528582,18.264221 13.291696,25.230495 11.500037,31.436501 z"
     style="fill:#404040;"/>
  </a>
 </g>
</svg>

<style type='text/css'>
<![CDATA[
[data-mouse-over-selected='false'] { opacity: 0.7; }
[data-mouse-over-selected='true']  { opacity: 1.0; }
]]>
</style>
<script type="application/ecmascript"><![CDATA[
document.addEventListener('DOMContentLoaded', (event) => {
  highlightEdges();
  highlightAdjacentNodes();
});
]]></script>
</svg>
