<?xml version="1.0" encoding="UTF-8" standalone="no"?>
<!DOCTYPE svg PUBLIC "-//W3C//DTD SVG 1.1//EN"
 "http://www.w3.org/Graphics/SVG/1.1/DTD/svg11.dtd">
<!-- Generated by graphviz version 14.1.5 (0)
 -->
<!-- Title: ring_vibrate_cb Pages: 1 -->
<svg width="377pt" height="142pt"
 viewBox="0.00 0.00 377.00 142.00" xmlns="http://www.w3.org/2000/svg" xmlns:xlink="http://www.w3.org/1999/xlink">
<g id="graph0" class="graph" transform="scale(1 1) rotate(0) translate(4 138)">
<title>ring_vibrate_cb</title>
<!-- Node1 -->
<g id="Node000001" class="node">
<title>Node1</title>
<g id="a_Node000001"><a xlink:title=" ">
<polygon fill="#999999" stroke="#666666" points="82,-77 0,-77 0,-57 82,-57 82,-77"/>
<text xml:space="preserve" text-anchor="middle" x="41" y="-63.5" font-family="Helvetica,sans-Serif" font-size="10.00">ring_vibrate_cb</text>
</a>
</g>
</g>
<!-- Node2 -->
<g id="Node000002" class="node">
<title>Node2</title>
<g id="a_Node000002"><a xlink:href="hal__interface_8cpp.html#a4c3da49ce628c497da298e8dd8555285" target="_top" xlink:title=" ">
<polygon fill="white" stroke="#666666" points="231.12,-134 122.88,-134 122.88,-114 231.12,-114 231.12,-134"/>
<text xml:space="preserve" text-anchor="middle" x="177" y="-120.5" font-family="Helvetica,sans-Serif" font-size="10.00">hw_alarm_sound_get</text>
</a>
</g>
</g>
<!-- Node1&#45;&gt;Node2 -->
<g id="edge1_Node000001_Node000002" class="edge">
<title>Node1&#45;&gt;Node2</title>
<g id="a_edge1_Node000001_Node000002"><a xlink:title=" ">
<path fill="none" stroke="#63b8ff" d="M65.58,-77.36C80.56,-83.92 100.39,-92.53 118,-100 125.15,-103.03 132.8,-106.23 140.14,-109.27"/>
<polygon fill="#63b8ff" stroke="#63b8ff" points="138.57,-112.41 149.15,-113 141.25,-105.95 138.57,-112.41"/>
</a>
</g>
</g>
<!-- Node3 -->
<g id="Node000003" class="node">
<title>Node3</title>
<g id="a_Node000003"><a xlink:href="hal__interface_8cpp.html#a3c8132bf5fffb69621ca107c488148f4" target="_top" xlink:title="Check if the music player is running.">
<polygon fill="white" stroke="#666666" points="369,-77 272,-77 272,-57 369,-57 369,-77"/>
<text xml:space="preserve" text-anchor="middle" x="320.5" y="-63.5" font-family="Helvetica,sans-Serif" font-size="10.00">hw_player_running</text>
</a>
</g>
</g>
<!-- Node1&#45;&gt;Node3 -->
<g id="edge2_Node000001_Node000003" class="edge">
<title>Node1&#45;&gt;Node3</title>
<g id="a_edge2_Node000001_Node000003"><a xlink:title=" ">
<path fill="none" stroke="#63b8ff" d="M82.35,-67C129.13,-67 206.64,-67 260.25,-67"/>
<polygon fill="#63b8ff" stroke="#63b8ff" points="260.13,-70.5 270.13,-67 260.13,-63.5 260.13,-70.5"/>
</a>
</g>
</g>
<!-- Node4 -->
<g id="Node000004" class="node">
<title>Node4</title>
<g id="a_Node000004"><a xlink:href="hal__interface_8cpp.html#ad14a0b5423105b085f8bc32a00fb0d7b" target="_top" xlink:title=" ">
<polygon fill="white" stroke="#666666" points="236,-58 118,-58 118,-38 236,-38 236,-58"/>
<text xml:space="preserve" text-anchor="middle" x="177" y="-44.5" font-family="Helvetica,sans-Serif" font-size="10.00">hw_set_sd_music_play</text>
</a>
</g>
</g>
<!-- Node1&#45;&gt;Node4 -->
<g id="edge3_Node000001_Node000004" class="edge">
<title>Node1&#45;&gt;Node4</title>
<g id="a_edge3_Node000001_Node000004"><a xlink:title=" ">
<path fill="none" stroke="#63b8ff" d="M82.2,-61.3C89.94,-60.2 98.25,-59.02 106.61,-57.84"/>
<polygon fill="#63b8ff" stroke="#63b8ff" points="107.08,-61.31 116.49,-56.44 106.1,-54.38 107.08,-61.31"/>
</a>
</g>
</g>
<!-- Node5 -->
<g id="Node000005" class="node">
<title>Node5</title>
<g id="a_Node000005"><a xlink:href="hal__interface_8cpp.html#a30727c47b69af6274a126516517583de" target="_top" xlink:title=" ">
<polygon fill="white" stroke="#666666" points="220.62,-20 133.38,-20 133.38,0 220.62,0 220.62,-20"/>
<text xml:space="preserve" text-anchor="middle" x="177" y="-6.5" font-family="Helvetica,sans-Serif" font-size="10.00">hw_vibrate_max</text>
</a>
</g>
</g>
<!-- Node1&#45;&gt;Node5 -->
<g id="edge5_Node000001_Node000005" class="edge">
<title>Node1&#45;&gt;Node5</title>
<g id="a_edge5_Node000001_Node000005"><a xlink:title=" ">
<path fill="none" stroke="#63b8ff" d="M61,-56.52C76.16,-48.4 98.08,-37.19 118,-29 122.07,-27.33 126.35,-25.69 130.66,-24.13"/>
<polygon fill="#63b8ff" stroke="#63b8ff" points="131.62,-27.51 139.92,-20.92 129.32,-20.9 131.62,-27.51"/>
</a>
</g>
</g>
<!-- Node4&#45;&gt;Node3 -->
<g id="edge4_Node000004_Node000003" class="edge">
<title>Node4&#45;&gt;Node3</title>
<g id="a_edge4_Node000004_Node000003"><a xlink:title=" ">
<path fill="none" stroke="#63b8ff" d="M236.37,-55.84C244.25,-56.9 252.34,-57.98 260.23,-59.04"/>
<polygon fill="#63b8ff" stroke="#63b8ff" points="259.73,-62.51 270.1,-60.37 260.66,-55.57 259.73,-62.51"/>
</a>
</g>
</g>
</g>
</svg>
