<?xml version="1.0" encoding="UTF-8" standalone="no"?>
<!DOCTYPE svg PUBLIC "-//W3C//DTD SVG 1.1//EN"
 "http://www.w3.org/Graphics/SVG/1.1/DTD/svg11.dtd">
<!-- Generated by graphviz version 14.1.5 (0)
 -->
<!-- Title: build_home_clock Pages: 1 -->
<svg width="561pt" height="104pt"
 viewBox="0.00 0.00 561.00 104.00" xmlns="http://www.w3.org/2000/svg" xmlns:xlink="http://www.w3.org/1999/xlink">
<g id="graph0" class="graph" transform="scale(1 1) rotate(0) translate(4 100)">
<title>build_home_clock</title>
<!-- Node1 -->
<g id="Node000001" class="node">
<title>Node1</title>
<g id="a_Node000001"><a xlink:title=" ">
<polygon fill="#999999" stroke="#666666" points="94,-58 0,-58 0,-38 94,-38 94,-58"/>
<text xml:space="preserve" text-anchor="middle" x="47" y="-44.5" font-family="Helvetica,sans-Serif" font-size="10.00">build_home_clock</text>
</a>
</g>
</g>
<!-- Node2 -->
<g id="Node000002" class="node">
<title>Node2</title>
<g id="a_Node000002"><a xlink:href="ui__main_8cpp.html#aa859a803a6a633ff9452bc13a2c428a4" target="_top" xlink:title=" ">
<polygon fill="white" stroke="#666666" points="232.62,-96 143.88,-96 143.88,-76 232.62,-76 232.62,-96"/>
<text xml:space="preserve" text-anchor="middle" x="188.25" y="-82.5" font-family="Helvetica,sans-Serif" font-size="10.00">build_clock_face</text>
</a>
</g>
</g>
<!-- Node1&#45;&gt;Node2 -->
<g id="edge1_Node000001_Node000002" class="edge">
<title>Node1&#45;&gt;Node2</title>
<g id="a_edge1_Node000001_Node000002"><a xlink:title=" ">
<path fill="none" stroke="#63b8ff" d="M86.42,-58.48C102.4,-62.85 121.15,-67.96 138.11,-72.59"/>
<polygon fill="#63b8ff" stroke="#63b8ff" points="136.93,-75.9 147.5,-75.15 138.77,-69.14 136.93,-75.9"/>
</a>
</g>
</g>
<!-- Node3 -->
<g id="Node000003" class="node">
<title>Node3</title>
<g id="a_Node000003"><a xlink:href="ui__main_8cpp.html#a410b487c1f14b4b0b47401c26b5c906e" target="_top" xlink:title=" ">
<polygon fill="white" stroke="#666666" points="246.5,-58 130,-58 130,-38 246.5,-38 246.5,-58"/>
<text xml:space="preserve" text-anchor="middle" x="188.25" y="-44.5" font-family="Helvetica,sans-Serif" font-size="10.00">clock_update_datetime</text>
</a>
</g>
</g>
<!-- Node1&#45;&gt;Node3 -->
<g id="edge2_Node000001_Node000003" class="edge">
<title>Node1&#45;&gt;Node3</title>
<g id="a_edge2_Node000001_Node000003"><a xlink:title=" ">
<path fill="none" stroke="#63b8ff" d="M94.37,-48C102.11,-48 110.29,-48 118.45,-48"/>
<polygon fill="#63b8ff" stroke="#63b8ff" points="118.42,-51.5 128.42,-48 118.42,-44.5 118.42,-51.5"/>
</a>
</g>
</g>
<!-- Node7 -->
<g id="Node000007" class="node">
<title>Node7</title>
<g id="a_Node000007"><a xlink:href="ui__main_8cpp.html#a6e272fcaeaeefce055a30d0497333485" target="_top" xlink:title=" ">
<polygon fill="white" stroke="#666666" points="228.88,-20 147.62,-20 147.62,0 228.88,0 228.88,-20"/>
<text xml:space="preserve" text-anchor="middle" x="188.25" y="-6.5" font-family="Helvetica,sans-Serif" font-size="10.00">style_clock_bg</text>
</a>
</g>
</g>
<!-- Node1&#45;&gt;Node7 -->
<g id="edge7_Node000001_Node000007" class="edge">
<title>Node1&#45;&gt;Node7</title>
<g id="a_edge7_Node000001_Node000007"><a xlink:title=" ">
<path fill="none" stroke="#63b8ff" d="M86.42,-37.52C102.4,-33.15 121.15,-28.04 138.11,-23.41"/>
<polygon fill="#63b8ff" stroke="#63b8ff" points="138.77,-26.86 147.5,-20.85 136.93,-20.1 138.77,-26.86"/>
</a>
</g>
</g>
<!-- Node4 -->
<g id="Node000004" class="node">
<title>Node4</title>
<g id="a_Node000004"><a xlink:href="hal__interface_8cpp.html#aade54ac2e175dcf91cd574701376e9be" target="_top" xlink:title="Get the current date and time as a string.">
<polygon fill="white" stroke="#666666" points="391.5,-77 296,-77 296,-57 391.5,-57 391.5,-77"/>
<text xml:space="preserve" text-anchor="middle" x="343.75" y="-63.5" font-family="Helvetica,sans-Serif" font-size="10.00">hw_get_date_time</text>
</a>
</g>
</g>
<!-- Node3&#45;&gt;Node4 -->
<g id="edge3_Node000003_Node000004" class="edge">
<title>Node3&#45;&gt;Node4</title>
<g id="a_edge3_Node000003_Node000004"><a xlink:title=" ">
<path fill="none" stroke="#63b8ff" d="M246.84,-55.13C259.22,-56.66 272.3,-58.28 284.7,-59.81"/>
<polygon fill="#63b8ff" stroke="#63b8ff" points="283.99,-63.25 294.34,-61.01 284.85,-56.31 283.99,-63.25"/>
</a>
</g>
</g>
<!-- Node6 -->
<g id="Node000006" class="node">
<title>Node6</title>
<g id="a_Node000006"><a xlink:href="hal__interface_8cpp.html#aa5e11b749ec3d7c509b518f331203102" target="_top" xlink:title="Get the monitor parameters.">
<polygon fill="white" stroke="#666666" points="405,-39 282.5,-39 282.5,-19 405,-19 405,-39"/>
<text xml:space="preserve" text-anchor="middle" x="343.75" y="-25.5" font-family="Helvetica,sans-Serif" font-size="10.00">hw_get_monitor_params</text>
</a>
</g>
</g>
<!-- Node3&#45;&gt;Node6 -->
<g id="edge5_Node000003_Node000006" class="edge">
<title>Node3&#45;&gt;Node6</title>
<g id="a_edge5_Node000003_Node000006"><a xlink:title=" ">
<path fill="none" stroke="#63b8ff" d="M246.84,-40.87C254.65,-39.9 262.74,-38.9 270.76,-37.91"/>
<polygon fill="#63b8ff" stroke="#63b8ff" points="271.01,-41.41 280.51,-36.7 270.15,-34.46 271.01,-41.41"/>
</a>
</g>
</g>
<!-- Node5 -->
<g id="Node000005" class="node">
<title>Node5</title>
<g id="a_Node000005"><a xlink:href="hal__interface_8cpp.html#a0962c4ad5380756e98f3fd31f5cf9978" target="_top" xlink:title="Get the online status of the hardware devices.">
<polygon fill="white" stroke="#666666" points="553,-58 441,-58 441,-38 553,-38 553,-58"/>
<text xml:space="preserve" text-anchor="middle" x="497" y="-44.5" font-family="Helvetica,sans-Serif" font-size="10.00">hw_get_device_online</text>
</a>
</g>
</g>
<!-- Node4&#45;&gt;Node5 -->
<g id="edge4_Node000004_Node000005" class="edge">
<title>Node4&#45;&gt;Node5</title>
<g id="a_edge4_Node000004_Node000005"><a xlink:title=" ">
<path fill="none" stroke="#63b8ff" d="M391.78,-61.09C403.72,-59.59 416.77,-57.95 429.48,-56.36"/>
<polygon fill="#63b8ff" stroke="#63b8ff" points="429.53,-59.88 439.01,-55.16 428.66,-52.93 429.53,-59.88"/>
</a>
</g>
</g>
<!-- Node6&#45;&gt;Node5 -->
<g id="edge6_Node000006_Node000005" class="edge">
<title>Node6&#45;&gt;Node5</title>
<g id="a_edge6_Node000006_Node000005"><a xlink:title=" ">
<path fill="none" stroke="#63b8ff" d="M405.4,-36.62C413.33,-37.61 421.49,-38.64 429.51,-39.65"/>
<polygon fill="#63b8ff" stroke="#63b8ff" points="428.86,-43.09 439.22,-40.87 429.74,-36.15 428.86,-43.09"/>
</a>
</g>
</g>
</g>
</svg>
