<?xml version="1.0" encoding="UTF-8" standalone="no"?>
<!DOCTYPE svg PUBLIC "-//W3C//DTD SVG 1.1//EN"
 "http://www.w3.org/Graphics/SVG/1.1/DTD/svg11.dtd">
<!-- Generated by graphviz version 14.1.5 (0)
 -->
<!-- Title: update_radio_frequency Pages: 1 -->
<svg width="462pt" height="266pt"
 viewBox="0.00 0.00 462.00 266.00" xmlns="http://www.w3.org/2000/svg" xmlns:xlink="http://www.w3.org/1999/xlink">
<g id="graph0" class="graph" transform="scale(1 1) rotate(0) translate(4 262)">
<title>update_radio_frequency</title>
<!-- Node1 -->
<g id="Node000001" class="node">
<title>Node1</title>
<g id="a_Node000001"><a xlink:title=" ">
<polygon fill="#999999" stroke="#666666" points="119.5,-180 0,-180 0,-160 119.5,-160 119.5,-180"/>
<text xml:space="preserve" text-anchor="middle" x="59.75" y="-166.5" font-family="Helvetica,sans-Serif" font-size="10.00">update_radio_frequency</text>
</a>
</g>
</g>
<!-- Node2 -->
<g id="Node000002" class="node">
<title>Node2</title>
<g id="a_Node000002"><a xlink:href="stubs_8cpp.html#a8bd71a4f7117586397bd0e81363f33f6" target="_top" xlink:title="Get the radio frequency from the index.">
<polygon fill="white" stroke="#666666" points="276.12,-252 173.88,-252 173.88,-220 276.12,-220 276.12,-252"/>
<text xml:space="preserve" text-anchor="start" x="181.88" y="-238.5" font-family="Helvetica,sans-Serif" font-size="10.00">radio_get_freq_from</text>
<text xml:space="preserve" text-anchor="middle" x="225" y="-226.5" font-family="Helvetica,sans-Serif" font-size="10.00">_index</text>
</a>
</g>
</g>
<!-- Node1&#45;&gt;Node2 -->
<g id="edge1_Node000001_Node000002" class="edge">
<title>Node1&#45;&gt;Node2</title>
<g id="a_edge1_Node000001_Node000002"><a xlink:title=" ">
<path fill="none" stroke="#63b8ff" d="M83.95,-180.49C103.04,-189.01 130.86,-201.18 155.5,-211 159.31,-212.52 163.26,-214.05 167.24,-215.58"/>
<polygon fill="#63b8ff" stroke="#63b8ff" points="165.79,-218.77 176.39,-219.02 168.26,-212.22 165.79,-218.77"/>
</a>
</g>
</g>
<!-- Node3 -->
<g id="Node000003" class="node">
<title>Node3</title>
<g id="a_Node000003"><a xlink:href="ui__radio_8cpp.html#a30cbfbd962579b00681daf2c71f335a7" target="_top" xlink:title=" ">
<polygon fill="white" stroke="#666666" points="275.75,-164 174.25,-164 174.25,-132 275.75,-132 275.75,-164"/>
<text xml:space="preserve" text-anchor="start" x="182.25" y="-150.5" font-family="Helvetica,sans-Serif" font-size="10.00">refresh_radio_range</text>
<text xml:space="preserve" text-anchor="middle" x="225" y="-138.5" font-family="Helvetica,sans-Serif" font-size="10.00">_options</text>
</a>
</g>
</g>
<!-- Node1&#45;&gt;Node3 -->
<g id="edge2_Node000001_Node000003" class="edge">
<title>Node1&#45;&gt;Node3</title>
<g id="a_edge2_Node000001_Node000003"><a xlink:title=" ">
<path fill="none" stroke="#63b8ff" d="M119.69,-162.06C133.67,-160.17 148.61,-158.16 162.7,-156.26"/>
<polygon fill="#63b8ff" stroke="#63b8ff" points="162.83,-159.78 172.27,-154.97 161.89,-152.84 162.83,-159.78"/>
</a>
</g>
</g>
<!-- Node8 -->
<g id="Node000008" class="node">
<title>Node8</title>
<g id="a_Node000008"><a xlink:href="ui__radio_8cpp.html#aab37a71b66cd0600659449d2896a44fb" target="_top" xlink:title=" ">
<polygon fill="white" stroke="#666666" points="294.5,-202 155.5,-202 155.5,-182 294.5,-182 294.5,-202"/>
<text xml:space="preserve" text-anchor="middle" x="225" y="-188.5" font-family="Helvetica,sans-Serif" font-size="10.00">select_bandwidth_dropdown</text>
</a>
</g>
</g>
<!-- Node1&#45;&gt;Node8 -->
<g id="edge7_Node000001_Node000008" class="edge">
<title>Node1&#45;&gt;Node8</title>
<g id="a_edge7_Node000001_Node000008"><a xlink:title=" ">
<path fill="none" stroke="#63b8ff" d="M119.69,-177.94C127.6,-179.01 135.82,-180.12 144.02,-181.22"/>
<polygon fill="#63b8ff" stroke="#63b8ff" points="143.27,-184.65 153.65,-182.52 144.21,-177.72 143.27,-184.65"/>
</a>
</g>
</g>
<!-- Node10 -->
<g id="Node000010" class="node">
<title>Node10</title>
<g id="a_Node000010"><a xlink:href="ui__radio_8cpp.html#a3f6948851dbe5dc25441ae7bda26fe6c" target="_top" xlink:title=" ">
<polygon fill="white" stroke="#666666" points="285.5,-76 164.5,-76 164.5,-56 285.5,-56 285.5,-76"/>
<text xml:space="preserve" text-anchor="middle" x="225" y="-62.5" font-family="Helvetica,sans-Serif" font-size="10.00">select_power_dropdown</text>
</a>
</g>
</g>
<!-- Node1&#45;&gt;Node10 -->
<g id="edge10_Node000001_Node000010" class="edge">
<title>Node1&#45;&gt;Node10</title>
<g id="a_edge10_Node000001_Node000010"><a xlink:title=" ">
<path fill="none" stroke="#63b8ff" d="M77,-159.65C105.36,-141.58 164.1,-104.16 198.11,-82.49"/>
<polygon fill="#63b8ff" stroke="#63b8ff" points="199.99,-85.45 206.54,-77.12 196.22,-79.54 199.99,-85.45"/>
</a>
</g>
</g>
<!-- Node4 -->
<g id="Node000004" class="node">
<title>Node4</title>
<g id="a_Node000004"><a xlink:href="stubs_8cpp.html#a7cd44387f3ee4eb892c48515e4810751" target="_top" xlink:title="Get the radio bandwidth from the index.">
<polygon fill="white" stroke="#666666" points="444.75,-208 339.5,-208 339.5,-176 444.75,-176 444.75,-208"/>
<text xml:space="preserve" text-anchor="start" x="347.5" y="-194.5" font-family="Helvetica,sans-Serif" font-size="10.00">radio_get_bandwidth</text>
<text xml:space="preserve" text-anchor="middle" x="392.12" y="-182.5" font-family="Helvetica,sans-Serif" font-size="10.00">_from_index</text>
</a>
</g>
</g>
<!-- Node3&#45;&gt;Node4 -->
<g id="edge3_Node000003_Node000004" class="edge">
<title>Node3&#45;&gt;Node4</title>
<g id="a_edge3_Node000003_Node000004"><a xlink:title=" ">
<path fill="none" stroke="#63b8ff" d="M275.99,-161.32C292.34,-165.68 310.73,-170.58 327.92,-175.16"/>
<polygon fill="#63b8ff" stroke="#63b8ff" points="326.99,-178.53 337.55,-177.72 328.79,-171.77 326.99,-178.53"/>
</a>
</g>
</g>
<!-- Node5 -->
<g id="Node000005" class="node">
<title>Node5</title>
<g id="a_Node000005"><a xlink:href="stubs_8cpp.html#ae366b96c1f7a9def73d1ee13b68f90a9" target="_top" xlink:title="Get the radio bandwidth list.">
<polygon fill="white" stroke="#666666" points="453.75,-158 330.5,-158 330.5,-138 453.75,-138 453.75,-158"/>
<text xml:space="preserve" text-anchor="middle" x="392.12" y="-144.5" font-family="Helvetica,sans-Serif" font-size="10.00">radio_get_bandwidth_list</text>
</a>
</g>
</g>
<!-- Node3&#45;&gt;Node5 -->
<g id="edge4_Node000003_Node000005" class="edge">
<title>Node3&#45;&gt;Node5</title>
<g id="a_edge4_Node000003_Node000005"><a xlink:title=" ">
<path fill="none" stroke="#63b8ff" d="M275.99,-148C289.47,-148 304.34,-148 318.77,-148"/>
<polygon fill="#63b8ff" stroke="#63b8ff" points="318.72,-151.5 328.71,-148 318.71,-144.5 318.72,-151.5"/>
</a>
</g>
</g>
<!-- Node6 -->
<g id="Node000006" class="node">
<title>Node6</title>
<g id="a_Node000006"><a xlink:href="stubs_8cpp.html#ab7f300b04697c5348ea4af8cee905235" target="_top" xlink:title="Get the radio transmission power from the index.">
<polygon fill="white" stroke="#666666" points="442.5,-82 341.75,-82 341.75,-50 442.5,-50 442.5,-82"/>
<text xml:space="preserve" text-anchor="start" x="349.75" y="-68.5" font-family="Helvetica,sans-Serif" font-size="10.00">radio_get_tx_power</text>
<text xml:space="preserve" text-anchor="middle" x="392.12" y="-56.5" font-family="Helvetica,sans-Serif" font-size="10.00">_from_index</text>
</a>
</g>
</g>
<!-- Node3&#45;&gt;Node6 -->
<g id="edge5_Node000003_Node000006" class="edge">
<title>Node3&#45;&gt;Node6</title>
<g id="a_edge5_Node000003_Node000006"><a xlink:title=" ">
<path fill="none" stroke="#63b8ff" d="M253.96,-131.68C274.76,-119.79 304.02,-103.64 330.5,-91 333.25,-89.69 336.08,-88.38 338.95,-87.08"/>
<polygon fill="#63b8ff" stroke="#63b8ff" points="340.3,-90.31 348.06,-83.1 337.5,-83.9 340.3,-90.31"/>
</a>
</g>
</g>
<!-- Node7 -->
<g id="Node000007" class="node">
<title>Node7</title>
<g id="a_Node000007"><a xlink:href="stubs_8cpp.html#a8e5a3ee0c53dbbe5794657a75d816e3d" target="_top" xlink:title="Get the radio transmission power list.">
<polygon fill="white" stroke="#666666" points="451.5,-120 332.75,-120 332.75,-100 451.5,-100 451.5,-120"/>
<text xml:space="preserve" text-anchor="middle" x="392.12" y="-106.5" font-family="Helvetica,sans-Serif" font-size="10.00">radio_get_tx_power_list</text>
</a>
</g>
</g>
<!-- Node3&#45;&gt;Node7 -->
<g id="edge6_Node000003_Node000007" class="edge">
<title>Node3&#45;&gt;Node7</title>
<g id="a_edge6_Node000003_Node000007"><a xlink:title=" ">
<path fill="none" stroke="#63b8ff" d="M275.99,-136.5C294.39,-132.26 315.37,-127.43 334.33,-123.07"/>
<polygon fill="#63b8ff" stroke="#63b8ff" points="335.09,-126.49 344.05,-120.83 333.52,-119.67 335.09,-126.49"/>
</a>
</g>
</g>
<!-- Node8&#45;&gt;Node4 -->
<g id="edge8_Node000008_Node000004" class="edge">
<title>Node8&#45;&gt;Node4</title>
<g id="a_edge8_Node000008_Node000004"><a xlink:title=" ">
<path fill="none" stroke="#63b8ff" d="M294.59,-192C305.53,-192 316.79,-192 327.6,-192"/>
<polygon fill="#63b8ff" stroke="#63b8ff" points="327.6,-195.5 337.6,-192 327.6,-188.5 327.6,-195.5"/>
</a>
</g>
</g>
<!-- Node9 -->
<g id="Node000009" class="node">
<title>Node9</title>
<g id="a_Node000009"><a xlink:href="stubs_8cpp.html#ad4b166dd553fe86dc8ded55a91e00030" target="_top" xlink:title="Get the radio bandwidth length.">
<polygon fill="white" stroke="#666666" points="444.75,-258 339.5,-258 339.5,-226 444.75,-226 444.75,-258"/>
<text xml:space="preserve" text-anchor="start" x="347.5" y="-244.5" font-family="Helvetica,sans-Serif" font-size="10.00">radio_get_bandwidth</text>
<text xml:space="preserve" text-anchor="middle" x="392.12" y="-232.5" font-family="Helvetica,sans-Serif" font-size="10.00">_length</text>
</a>
</g>
</g>
<!-- Node8&#45;&gt;Node9 -->
<g id="edge9_Node000008_Node000009" class="edge">
<title>Node8&#45;&gt;Node9</title>
<g id="a_edge9_Node000008_Node000009"><a xlink:title=" ">
<path fill="none" stroke="#63b8ff" d="M264.84,-202.48C274.55,-205.18 284.92,-208.14 294.5,-211 306.13,-214.48 318.5,-218.33 330.37,-222.1"/>
<polygon fill="#63b8ff" stroke="#63b8ff" points="329.06,-225.36 339.65,-225.07 331.19,-218.69 329.06,-225.36"/>
</a>
</g>
</g>
<!-- Node10&#45;&gt;Node6 -->
<g id="edge11_Node000010_Node000006" class="edge">
<title>Node10&#45;&gt;Node6</title>
<g id="a_edge11_Node000010_Node000006"><a xlink:title=" ">
<path fill="none" stroke="#63b8ff" d="M285.61,-66C300.05,-66 315.5,-66 330,-66"/>
<polygon fill="#63b8ff" stroke="#63b8ff" points="329.87,-69.5 339.87,-66 329.87,-62.5 329.87,-69.5"/>
</a>
</g>
</g>
<!-- Node11 -->
<g id="Node000011" class="node">
<title>Node11</title>
<g id="a_Node000011"><a xlink:href="stubs_8cpp.html#a8d78f734b3afbfaa896cfbcfd0c99177" target="_top" xlink:title="Get the radio transmission power length.">
<polygon fill="white" stroke="#666666" points="442.5,-32 341.75,-32 341.75,0 442.5,0 442.5,-32"/>
<text xml:space="preserve" text-anchor="start" x="349.75" y="-18.5" font-family="Helvetica,sans-Serif" font-size="10.00">radio_get_tx_power</text>
<text xml:space="preserve" text-anchor="middle" x="392.12" y="-6.5" font-family="Helvetica,sans-Serif" font-size="10.00">_length</text>
</a>
</g>
</g>
<!-- Node10&#45;&gt;Node11 -->
<g id="edge12_Node000010_Node000011" class="edge">
<title>Node10&#45;&gt;Node11</title>
<g id="a_edge12_Node000010_Node000011"><a xlink:title=" ">
<path fill="none" stroke="#63b8ff" d="M260.62,-55.52C280.86,-49.39 307,-41.47 330.55,-34.34"/>
<polygon fill="#63b8ff" stroke="#63b8ff" points="331.51,-37.71 340.07,-31.46 329.49,-31.01 331.51,-37.71"/>
</a>
</g>
</g>
</g>
</svg>
