<?xml version="1.0" encoding="UTF-8" standalone="no"?>
<!DOCTYPE svg PUBLIC "-//W3C//DTD SVG 1.1//EN"
 "http://www.w3.org/Graphics/SVG/1.1/DTD/svg11.dtd">
<!-- Generated by graphviz version 14.1.5 (0)
 -->
<!-- Title: create_msgbox Pages: 1 -->
<svg width="808pt" height="170pt"
 viewBox="0.00 0.00 808.00 170.00" xmlns="http://www.w3.org/2000/svg" xmlns:xlink="http://www.w3.org/1999/xlink">
<g id="graph0" class="graph" transform="scale(1 1) rotate(0) translate(4 166)">
<title>create_msgbox</title>
<!-- Node1 -->
<g id="Node000001" class="node">
<title>Node1</title>
<g id="a_Node000001"><a xlink:title=" ">
<polygon fill="#999999" stroke="#666666" points="799.5,-48 716.75,-48 716.75,-28 799.5,-28 799.5,-48"/>
<text xml:space="preserve" text-anchor="middle" x="758.12" y="-34.5" font-family="Helvetica,sans-Serif" font-size="10.00">create_msgbox</text>
</a>
</g>
</g>
<!-- Node2 -->
<g id="Node000002" class="node">
<title>Node2</title>
<g id="a_Node000002"><a xlink:href="ui__msg_8cpp.html#ace5fbfd131d77736e36d007c8aa21813" target="_top" xlink:title="Pop up a message box on the UI.">
<polygon fill="white" stroke="#666666" points="680.75,-86 596.5,-86 596.5,-66 680.75,-66 680.75,-86"/>
<text xml:space="preserve" text-anchor="middle" x="638.62" y="-72.5" font-family="Helvetica,sans-Serif" font-size="10.00">ui_msg_pop_up</text>
</a>
</g>
</g>
<!-- Node1&#45;&gt;Node2 -->
<g id="edge1_Node000001_Node000002" class="edge">
<title>Node1&#45;&gt;Node2</title>
<g id="a_edge1_Node000001_Node000002"><a xlink:title=" ">
<path fill="none" stroke="#63b8ff" d="M713.91,-51.98C700.02,-56.47 684.9,-61.36 671.94,-65.55"/>
<polygon fill="#63b8ff" stroke="#63b8ff" points="714.83,-55.36 723.27,-48.95 712.67,-48.7 714.83,-55.36"/>
</a>
</g>
</g>
<!-- Node6 -->
<g id="Node000006" class="node">
<title>Node6</title>
<g id="a_Node000006"><a xlink:href="ui__nfc_8cpp.html#a68a174f5053fe18de131c7af8dc74b0b" target="_top" xlink:title=" ">
<polygon fill="white" stroke="#666666" points="79,-29 0,-29 0,-9 79,-9 79,-29"/>
<text xml:space="preserve" text-anchor="middle" x="39.5" y="-15.5" font-family="Helvetica,sans-Serif" font-size="10.00">ui_nfc_pop_up</text>
</a>
</g>
</g>
<!-- Node1&#45;&gt;Node6 -->
<g id="edge12_Node000001_Node000006" class="edge">
<title>Node1&#45;&gt;Node6</title>
<g id="a_edge12_Node000001_Node000006"><a xlink:title=" ">
<path fill="none" stroke="#63b8ff" d="M705.21,-25.3C655.45,-14.25 578.06,0 510,0 510,0 510,0 355.12,0 255.53,0 138.53,-9.6 79.2,-15.16"/>
<polygon fill="#63b8ff" stroke="#63b8ff" points="704.32,-28.69 714.84,-27.48 705.86,-21.86 704.32,-28.69"/>
</a>
</g>
</g>
<!-- Node3 -->
<g id="Node000003" class="node">
<title>Node3</title>
<g id="a_Node000003"><a xlink:href="ui__msg_8cpp.html#ae07c5a26ec3ca76e01a2df163e8b6a31" target="_top" xlink:title=" ">
<polygon fill="white" stroke="#666666" points="560.5,-162 457.5,-162 457.5,-142 560.5,-142 560.5,-162"/>
<text xml:space="preserve" text-anchor="middle" x="509" y="-148.5" font-family="Helvetica,sans-Serif" font-size="10.00">_ui_process_bar_cb</text>
</a>
</g>
</g>
<!-- Node2&#45;&gt;Node3 -->
<g id="edge2_Node000002_Node000003" class="edge">
<title>Node2&#45;&gt;Node3</title>
<g id="a_edge2_Node000002_Node000003"><a xlink:title=" ">
<path fill="none" stroke="#63b8ff" d="M617.33,-93.44C602.36,-105.68 581.09,-121.8 560.5,-133 554.66,-136.18 548.17,-139.05 541.85,-141.55"/>
<polygon fill="#63b8ff" stroke="#63b8ff" points="619.18,-96.46 624.62,-87.37 614.69,-91.08 619.18,-96.46"/>
</a>
</g>
</g>
<!-- Node7 -->
<g id="Node000007" class="node">
<title>Node7</title>
<g id="a_Node000007"><a xlink:href="ui__wireless_8cpp.html#a93ccd054556feab55b5f61319cf33657" target="_top" xlink:title=" ">
<polygon fill="white" stroke="#666666" points="559,-124 459,-124 459,-104 559,-104 559,-124"/>
<text xml:space="preserve" text-anchor="middle" x="509" y="-110.5" font-family="Helvetica,sans-Serif" font-size="10.00">wifi_connect_event</text>
</a>
</g>
</g>
<!-- Node2&#45;&gt;Node7 -->
<g id="edge6_Node000002_Node000007" class="edge">
<title>Node2&#45;&gt;Node7</title>
<g id="a_edge6_Node000002_Node000007"><a xlink:title=" ">
<path fill="none" stroke="#63b8ff" d="M591.58,-89.71C576.26,-94.27 559.45,-99.28 545.1,-103.55"/>
<polygon fill="#63b8ff" stroke="#63b8ff" points="592.38,-93.12 600.96,-86.92 590.38,-86.42 592.38,-93.12"/>
</a>
</g>
</g>
<!-- Node9 -->
<g id="Node000009" class="node">
<title>Node9</title>
<g id="a_Node000009"><a xlink:href="ui__wireless_8cpp.html#aab35cf2d927630055322333370e35cf2" target="_top" xlink:title=" ">
<polygon fill="white" stroke="#666666" points="547,-86 471,-86 471,-66 547,-66 547,-86"/>
<text xml:space="preserve" text-anchor="middle" x="509" y="-72.5" font-family="Helvetica,sans-Serif" font-size="10.00">wifi_off_event</text>
</a>
</g>
</g>
<!-- Node2&#45;&gt;Node9 -->
<g id="edge8_Node000002_Node000009" class="edge">
<title>Node2&#45;&gt;Node9</title>
<g id="a_edge8_Node000002_Node000009"><a xlink:title=" ">
<path fill="none" stroke="#63b8ff" d="M584.85,-76C572.26,-76 559.08,-76 547.35,-76"/>
<polygon fill="#63b8ff" stroke="#63b8ff" points="584.68,-79.5 594.68,-76 584.68,-72.5 584.68,-79.5"/>
</a>
</g>
</g>
<!-- Node10 -->
<g id="Node000010" class="node">
<title>Node10</title>
<g id="a_Node000010"><a xlink:href="ui__wireless_8cpp.html#a12681fa5e646eb9f3650e8ed7840439c" target="_top" xlink:title=" ">
<polygon fill="white" stroke="#666666" points="552.25,-48 465.75,-48 465.75,-28 552.25,-28 552.25,-48"/>
<text xml:space="preserve" text-anchor="middle" x="509" y="-34.5" font-family="Helvetica,sans-Serif" font-size="10.00">wifi_save_event</text>
</a>
</g>
</g>
<!-- Node2&#45;&gt;Node10 -->
<g id="edge10_Node000002_Node000010" class="edge">
<title>Node2&#45;&gt;Node10</title>
<g id="a_edge10_Node000002_Node000010"><a xlink:title=" ">
<path fill="none" stroke="#63b8ff" d="M591.58,-62.29C576.26,-57.73 559.45,-52.72 545.1,-48.45"/>
<polygon fill="#63b8ff" stroke="#63b8ff" points="590.38,-65.58 600.96,-65.08 592.38,-58.88 590.38,-65.58"/>
</a>
</g>
</g>
<!-- Node4 -->
<g id="Node000004" class="node">
<title>Node4</title>
<g id="a_Node000004"><a xlink:href="ui__msg_8cpp.html#aeb15920fcb8748fe8cc02865a923435b" target="_top" xlink:title="Show the WiFi connection process bar on the UI.">
<polygon fill="white" stroke="#666666" points="421.5,-143 290.75,-143 290.75,-123 421.5,-123 421.5,-143"/>
<text xml:space="preserve" text-anchor="middle" x="356.12" y="-129.5" font-family="Helvetica,sans-Serif" font-size="10.00">ui_show_wifi_process_bar</text>
</a>
</g>
</g>
<!-- Node3&#45;&gt;Node4 -->
<g id="edge3_Node000003_Node000004" class="edge">
<title>Node3&#45;&gt;Node4</title>
<g id="a_edge3_Node000003_Node000004"><a xlink:title=" ">
<path fill="none" stroke="#63b8ff" d="M446.18,-144.21C438.16,-143.2 429.92,-142.17 421.85,-141.15"/>
<polygon fill="#63b8ff" stroke="#63b8ff" points="445.48,-147.65 455.84,-145.43 446.36,-140.71 445.48,-147.65"/>
</a>
</g>
</g>
<!-- Node5 -->
<g id="Node000005" class="node">
<title>Node5</title>
<g id="a_Node000005"><a xlink:href="ui__nfc_8cpp.html#a0bd1993c3694460cc4594aac4fcb2843" target="_top" xlink:title=" ">
<polygon fill="white" stroke="#666666" points="254.75,-86 115,-86 115,-66 254.75,-66 254.75,-86"/>
<text xml:space="preserve" text-anchor="middle" x="184.88" y="-72.5" font-family="Helvetica,sans-Serif" font-size="10.00">goto_connect_wifi_event_cb</text>
</a>
</g>
</g>
<!-- Node4&#45;&gt;Node5 -->
<g id="edge4_Node000004_Node000005" class="edge">
<title>Node4&#45;&gt;Node5</title>
<g id="a_edge4_Node000004_Node000005"><a xlink:title=" ">
<path fill="none" stroke="#63b8ff" d="M313.18,-118.87C283.38,-108.84 244.03,-95.59 217.01,-86.48"/>
<polygon fill="#63b8ff" stroke="#63b8ff" points="312.05,-122.19 322.65,-122.06 314.29,-115.55 312.05,-122.19"/>
</a>
</g>
</g>
<!-- Node5&#45;&gt;Node6 -->
<g id="edge5_Node000005_Node000006" class="edge">
<title>Node5&#45;&gt;Node6</title>
<g id="a_edge5_Node000005_Node000006"><a xlink:title=" ">
<path fill="none" stroke="#63b8ff" d="M146.96,-61.33C121.81,-51.32 89.11,-38.33 66.63,-29.39"/>
<polygon fill="#63b8ff" stroke="#63b8ff" points="145.59,-64.54 156.17,-64.99 148.17,-58.04 145.59,-64.54"/>
</a>
</g>
</g>
<!-- Node8 -->
<g id="Node000008" class="node">
<title>Node8</title>
<g id="a_Node000008"><a xlink:href="ui__wireless_8cpp.html#ad721a9d43e91608fd0e5d5aa07b5a7a0" target="_top" xlink:title=" ">
<polygon fill="white" stroke="#666666" points="402,-86 310.25,-86 310.25,-66 402,-66 402,-86"/>
<text xml:space="preserve" text-anchor="middle" x="356.12" y="-72.5" font-family="Helvetica,sans-Serif" font-size="10.00">ui_wireless_enter</text>
</a>
</g>
</g>
<!-- Node7&#45;&gt;Node8 -->
<g id="edge7_Node000007_Node000008" class="edge">
<title>Node7&#45;&gt;Node8</title>
<g id="a_edge7_Node000007_Node000008"><a xlink:title=" ">
<path fill="none" stroke="#63b8ff" d="M455.4,-100.75C436.8,-96.07 416.16,-90.87 398.62,-86.45"/>
<polygon fill="#63b8ff" stroke="#63b8ff" points="454.35,-104.1 464.91,-103.15 456.06,-97.31 454.35,-104.1"/>
</a>
</g>
</g>
<!-- Node9&#45;&gt;Node8 -->
<g id="edge9_Node000009_Node000008" class="edge">
<title>Node9&#45;&gt;Node8</title>
<g id="a_edge9_Node000009_Node000008"><a xlink:title=" ">
<path fill="none" stroke="#63b8ff" d="M459.37,-76C441.05,-76 420.32,-76 402.33,-76"/>
<polygon fill="#63b8ff" stroke="#63b8ff" points="459.19,-79.5 469.19,-76 459.19,-72.5 459.19,-79.5"/>
</a>
</g>
</g>
<!-- Node10&#45;&gt;Node8 -->
<g id="edge11_Node000010_Node000008" class="edge">
<title>Node10&#45;&gt;Node8</title>
<g id="a_edge11_Node000010_Node000008"><a xlink:title=" ">
<path fill="none" stroke="#63b8ff" d="M455.4,-51.25C436.8,-55.93 416.16,-61.13 398.62,-65.55"/>
<polygon fill="#63b8ff" stroke="#63b8ff" points="456.06,-54.69 464.91,-48.85 454.35,-47.9 456.06,-54.69"/>
</a>
</g>
</g>
</g>
</svg>
