<?xml version="1.0" encoding="UTF-8" standalone="no"?>
<!DOCTYPE svg PUBLIC "-//W3C//DTD SVG 1.1//EN"
 "http://www.w3.org/Graphics/SVG/1.1/DTD/svg11.dtd">
<!-- Generated by graphviz version 14.1.5 (0)
 -->
<!-- Title: create_device_probe Pages: 1 -->
<svg width="418pt" height="85pt"
 viewBox="0.00 0.00 418.00 85.00" xmlns="http://www.w3.org/2000/svg" xmlns:xlink="http://www.w3.org/1999/xlink">

<svg id="main" version="1.1" xmlns="http://www.w3.org/2000/svg" xmlns:xlink="http://www.w3.org/1999/xlink" xml:space="preserve">

<style type="text/css"><![CDATA[
.node, .edge {opacity: 0.7;}
.node.selected, .edge.selected {opacity: 1;}
.edge:hover path { stroke: red; }
.edge:hover polygon { stroke: red; fill: red; }
]]></style>
<script type="application/ecmascript" xlink:href="svg.min.js"/>
<svg id="graph" class="graph">
<g id="graph0" class="graph" transform="scale(1 1) rotate(0) translate(4 81)">
<title>create_device_probe</title>
<!-- Node1 -->
<g id="Node000001" class="node">
<title>Node1</title>
<g id="a_Node000001"><a xlink:title=" ">
<polygon fill="#999999" stroke="#666666" points="106,-39 0,-39 0,-19 106,-19 106,-39"/>
<text xml:space="preserve" text-anchor="middle" x="53" y="-25.5" font-family="Helvetica,sans-Serif" font-size="10.00">create_device_probe</text>
</a>
</g>
</g>
<!-- Node2 -->
<g id="Node000002" class="node">
<title>Node2</title>
<g id="a_Node000002"><a xlink:href="hal__interface_8cpp.html#a0962c4ad5380756e98f3fd31f5cf9978" target="_top" xlink:title="Get the online status of the hardware devices.">
<polygon fill="white" stroke="#666666" points="255.88,-77 143.88,-77 143.88,-57 255.88,-57 255.88,-77"/>
<text xml:space="preserve" text-anchor="middle" x="199.88" y="-63.5" font-family="Helvetica,sans-Serif" font-size="10.00">hw_get_device_online</text>
</a>
</g>
</g>
<!-- Node1&#45;&gt;Node2 -->
<g id="edge1_Node000001_Node000002" class="edge">
<title>Node1&#45;&gt;Node2</title>
<g id="a_edge1_Node000001_Node000002"><a xlink:title=" ">
<path fill="none" stroke="#63b8ff" d="M93.97,-39.48C110.68,-43.87 130.29,-49.01 148,-53.66"/>
<polygon fill="#63b8ff" stroke="#63b8ff" points="147.01,-57.01 157.57,-56.17 148.79,-50.24 147.01,-57.01"/>
</a>
</g>
</g>
<!-- Node3 -->
<g id="Node000003" class="node">
<title>Node3</title>
<g id="a_Node000003"><a xlink:href="hal__interface_8cpp.html#a55c6def5f0c954ecac5693c4c5c26f5e" target="_top" xlink:title="Get the name of a specific hardware device.">
<polygon fill="white" stroke="#666666" points="257.75,-39 142,-39 142,-19 257.75,-19 257.75,-39"/>
<text xml:space="preserve" text-anchor="middle" x="199.88" y="-25.5" font-family="Helvetica,sans-Serif" font-size="10.00">hw_get_devices_name</text>
</a>
</g>
</g>
<!-- Node1&#45;&gt;Node3 -->
<g id="edge2_Node000001_Node000003" class="edge">
<title>Node1&#45;&gt;Node3</title>
<g id="a_edge2_Node000001_Node000003"><a xlink:title=" ">
<path fill="none" stroke="#63b8ff" d="M106.3,-29C114.13,-29 122.29,-29 130.39,-29"/>
<polygon fill="#63b8ff" stroke="#63b8ff" points="130.23,-32.5 140.23,-29 130.23,-25.5 130.23,-32.5"/>
</a>
</g>
</g>
<!-- Node4 -->
<g id="Node000004" class="node">
<title>Node4</title>
<g id="a_Node000004"><a xlink:href="hal__interface_8cpp.html#afd7827bfe740c2362e412608f17400af" target="_top" xlink:title="Get the number of connected hardware devices.">
<polygon fill="white" stroke="#666666" points="409.5,-20 293.75,-20 293.75,0 409.5,0 409.5,-20"/>
<text xml:space="preserve" text-anchor="middle" x="351.62" y="-6.5" font-family="Helvetica,sans-Serif" font-size="10.00">hw_get_devices_nums</text>
</a>
</g>
</g>
<!-- Node1&#45;&gt;Node4 -->
<g id="edge4_Node000001_Node000004" class="edge">
<title>Node1&#45;&gt;Node4</title>
<g id="a_edge4_Node000001_Node000004"><a xlink:title=" ">
<path fill="none" stroke="#63b8ff" d="M93.57,-18.58C108.62,-15.12 125.99,-11.71 142,-10 188.48,-5.04 241.12,-5.08 281.9,-6.34"/>
<polygon fill="#63b8ff" stroke="#63b8ff" points="281.71,-9.84 291.83,-6.68 281.95,-2.84 281.71,-9.84"/>
</a>
</g>
</g>
<!-- Node3&#45;&gt;Node4 -->
<g id="edge3_Node000003_Node000004" class="edge">
<title>Node3&#45;&gt;Node4</title>
<g id="a_edge3_Node000003_Node000004"><a xlink:title=" ">
<path fill="none" stroke="#63b8ff" d="M257.92,-21.76C265.99,-20.74 274.35,-19.68 282.6,-18.63"/>
<polygon fill="#63b8ff" stroke="#63b8ff" points="282.76,-22.14 292.24,-17.41 281.88,-15.19 282.76,-22.14"/>
</a>
</g>
</g>
</g>
</svg>
</svg>

<style type='text/css'>
<![CDATA[
[data-mouse-over-selected='false'] { opacity: 0.7; }
[data-mouse-over-selected='true']  { opacity: 1.0; }
]]>
</style>
<script type="application/ecmascript"><![CDATA[
document.addEventListener('DOMContentLoaded', (event) => {
  highlightEdges();
  highlightAdjacentNodes();
});
]]></script>
</svg>
