<?xml version="1.0" encoding="UTF-8" standalone="no"?>
<!DOCTYPE svg PUBLIC "-//W3C//DTD SVG 1.1//EN"
 "http://www.w3.org/Graphics/SVG/1.1/DTD/svg11.dtd">
<!-- Generated by graphviz version 14.1.5 (0)
 -->
<!-- Title: ui_power_enter Pages: 1 -->
<svg width="784pt" height="268pt"
 viewBox="0.00 0.00 784.00 268.00" xmlns="http://www.w3.org/2000/svg" xmlns:xlink="http://www.w3.org/1999/xlink">
<g id="graph0" class="graph" transform="scale(1 1) rotate(0) translate(4 264)">
<title>ui_power_enter</title>
<!-- Node1 -->
<g id="Node000001" class="node">
<title>Node1</title>
<g id="a_Node000001"><a xlink:title=" ">
<polygon fill="#999999" stroke="#666666" points="82,-108 0,-108 0,-88 82,-88 82,-108"/>
<text xml:space="preserve" text-anchor="middle" x="41" y="-94.5" font-family="Helvetica,sans-Serif" font-size="10.00">ui_power_enter</text>
</a>
</g>
</g>
<!-- Node2 -->
<g id="Node000002" class="node">
<title>Node2</title>
<g id="a_Node000002"><a xlink:href="ui__audio_8cpp.html#a281e8b49ab313401f21f32672b2fe0a6" target="_top" xlink:title=" ">
<polygon fill="white" stroke="#666666" points="225.88,-222 122.88,-222 122.88,-202 225.88,-202 225.88,-222"/>
<text xml:space="preserve" text-anchor="middle" x="174.38" y="-208.5" font-family="Helvetica,sans-Serif" font-size="10.00">back_event_handler</text>
</a>
</g>
</g>
<!-- Node1&#45;&gt;Node2 -->
<g id="edge1_Node000001_Node000002" class="edge">
<title>Node1&#45;&gt;Node2</title>
<g id="a_edge1_Node000001_Node000002"><a xlink:title=" ">
<path fill="none" stroke="#63b8ff" d="M53.66,-108.12C76,-127.5 125.1,-170.11 152.98,-194.3"/>
<polygon fill="#63b8ff" stroke="#63b8ff" points="150.56,-196.84 160.41,-200.75 155.15,-191.55 150.56,-196.84"/>
</a>
</g>
</g>
<!-- Node7 -->
<g id="Node000007" class="node">
<title>Node7</title>
<g id="a_Node000007"><a xlink:href="ui__tools_8cpp.html#a7cacb0af0f83c41b7d8bfe984d778b5e" target="_top" xlink:title=" ">
<polygon fill="white" stroke="#666666" points="210.5,-146 138.25,-146 138.25,-126 210.5,-126 210.5,-146"/>
<text xml:space="preserve" text-anchor="middle" x="174.38" y="-132.5" font-family="Helvetica,sans-Serif" font-size="10.00">create_menu</text>
</a>
</g>
</g>
<!-- Node1&#45;&gt;Node7 -->
<g id="edge6_Node000001_Node000007" class="edge">
<title>Node1&#45;&gt;Node7</title>
<g id="a_edge6_Node000001_Node000007"><a xlink:title=" ">
<path fill="none" stroke="#63b8ff" d="M78.25,-108.48C93.43,-112.88 111.25,-118.03 127.34,-122.69"/>
<polygon fill="#63b8ff" stroke="#63b8ff" points="126.12,-125.98 136.7,-125.39 128.07,-119.25 126.12,-125.98"/>
</a>
</g>
</g>
<!-- Node9 -->
<g id="Node000009" class="node">
<title>Node9</title>
<g id="a_Node000009"><a xlink:href="ui__power_8cpp.html#ad129baf98d68c607824ee54981ef02a0" target="_top" xlink:title=" ">
<polygon fill="white" stroke="#666666" points="485.88,-146 430.12,-146 430.12,-126 485.88,-126 485.88,-146"/>
<text xml:space="preserve" text-anchor="middle" x="458" y="-132.5" font-family="Helvetica,sans-Serif" font-size="10.00">event_cb</text>
</a>
</g>
</g>
<!-- Node1&#45;&gt;Node9 -->
<g id="edge14_Node000001_Node000009" class="edge">
<title>Node1&#45;&gt;Node9</title>
<g id="a_edge14_Node000001_Node000009"><a xlink:title=" ">
<path fill="none" stroke="#63b8ff" d="M82.17,-101.68C162.08,-109 340.02,-125.29 418.52,-132.48"/>
<polygon fill="#63b8ff" stroke="#63b8ff" points="418.02,-135.94 428.29,-133.37 418.65,-128.97 418.02,-135.94"/>
</a>
</g>
</g>
<!-- Node13 -->
<g id="Node000013" class="node">
<title>Node13</title>
<g id="a_Node000013"><a xlink:href="hal__interface_8cpp.html#af4246031030be95c2cb928d00a88cf4c" target="_top" xlink:title="Get the device power tips string.">
<polygon fill="white" stroke="#666666" points="230.75,-70 118,-70 118,-38 230.75,-38 230.75,-70"/>
<text xml:space="preserve" text-anchor="start" x="126" y="-56.5" font-family="Helvetica,sans-Serif" font-size="10.00">hw_get_device_power</text>
<text xml:space="preserve" text-anchor="middle" x="174.38" y="-44.5" font-family="Helvetica,sans-Serif" font-size="10.00">_tips_string</text>
</a>
</g>
</g>
<!-- Node1&#45;&gt;Node13 -->
<g id="edge15_Node000001_Node000013" class="edge">
<title>Node1&#45;&gt;Node13</title>
<g id="a_edge15_Node000001_Node000013"><a xlink:title=" ">
<path fill="none" stroke="#63b8ff" d="M73.13,-87.57C85.29,-83.5 99.65,-78.69 113.64,-74.01"/>
<polygon fill="#63b8ff" stroke="#63b8ff" points="114.43,-77.43 122.8,-70.94 112.2,-70.8 114.43,-77.43"/>
</a>
</g>
</g>
<!-- Node14 -->
<g id="Node000014" class="node">
<title>Node14</title>
<g id="a_Node000014"><a xlink:href="ui__tools_8cpp.html#ad622255f136304d43fde9b68bd7e2553" target="_top" xlink:title="Check if the screen is small.">
<polygon fill="white" stroke="#666666" points="217.62,-20 131.12,-20 131.12,0 217.62,0 217.62,-20"/>
<text xml:space="preserve" text-anchor="middle" x="174.38" y="-6.5" font-family="Helvetica,sans-Serif" font-size="10.00">is_screen_small</text>
</a>
</g>
</g>
<!-- Node1&#45;&gt;Node14 -->
<g id="edge16_Node000001_Node000014" class="edge">
<title>Node1&#45;&gt;Node14</title>
<g id="a_edge16_Node000001_Node000014"><a xlink:title=" ">
<path fill="none" stroke="#63b8ff" d="M50.82,-87.68C64.03,-72.8 90.39,-45.32 118,-29 120.45,-27.55 123.03,-26.19 125.67,-24.92"/>
<polygon fill="#63b8ff" stroke="#63b8ff" points="126.9,-28.2 134.71,-21.04 124.14,-21.77 126.9,-28.2"/>
</a>
</g>
</g>
<!-- Node3 -->
<g id="Node000003" class="node">
<title>Node3</title>
<g id="a_Node000003"><a xlink:href="hal__interface_8cpp.html#ac575088d0288d21bd87b64145ce1df7b" target="_top" xlink:title="Stop the music playback.">
<polygon fill="white" stroke="#666666" points="367.5,-260 272.75,-260 272.75,-240 367.5,-240 367.5,-260"/>
<text xml:space="preserve" text-anchor="middle" x="320.12" y="-246.5" font-family="Helvetica,sans-Serif" font-size="10.00">hw_set_play_stop</text>
</a>
</g>
</g>
<!-- Node2&#45;&gt;Node3 -->
<g id="edge2_Node000002_Node000003" class="edge">
<title>Node2&#45;&gt;Node3</title>
<g id="a_edge2_Node000002_Node000003"><a xlink:title=" ">
<path fill="none" stroke="#63b8ff" d="M215.04,-222.48C231.69,-226.89 251.25,-232.06 268.9,-236.72"/>
<polygon fill="#63b8ff" stroke="#63b8ff" points="267.57,-239.99 278.13,-239.16 269.36,-233.22 267.57,-239.99"/>
</a>
</g>
</g>
<!-- Node5 -->
<g id="Node000005" class="node">
<title>Node5</title>
<g id="a_Node000005"><a xlink:href="ui__main_8cpp.html#aacbd3ab5885aa663bfae18f8ba403d14" target="_top" xlink:title=" ">
<polygon fill="white" stroke="#666666" points="629,-222 560.5,-222 560.5,-202 629,-202 629,-222"/>
<text xml:space="preserve" text-anchor="middle" x="594.75" y="-208.5" font-family="Helvetica,sans-Serif" font-size="10.00">menu_show</text>
</a>
</g>
</g>
<!-- Node2&#45;&gt;Node5 -->
<g id="edge4_Node000002_Node000005" class="edge">
<title>Node2&#45;&gt;Node5</title>
<g id="a_edge4_Node000002_Node000005"><a xlink:title=" ">
<path fill="none" stroke="#63b8ff" d="M226.26,-212C308.7,-212 470.13,-212 548.68,-212"/>
<polygon fill="#63b8ff" stroke="#63b8ff" points="548.58,-215.5 558.58,-212 548.58,-208.5 548.58,-215.5"/>
</a>
</g>
</g>
<!-- Node4 -->
<g id="Node000004" class="node">
<title>Node4</title>
<g id="a_Node000004"><a xlink:href="hal__interface_8cpp.html#a3c8132bf5fffb69621ca107c488148f4" target="_top" xlink:title="Check if the music player is running.">
<polygon fill="white" stroke="#666666" points="506.5,-260 409.5,-260 409.5,-240 506.5,-240 506.5,-260"/>
<text xml:space="preserve" text-anchor="middle" x="458" y="-246.5" font-family="Helvetica,sans-Serif" font-size="10.00">hw_player_running</text>
</a>
</g>
</g>
<!-- Node3&#45;&gt;Node4 -->
<g id="edge3_Node000003_Node000004" class="edge">
<title>Node3&#45;&gt;Node4</title>
<g id="a_edge3_Node000003_Node000004"><a xlink:title=" ">
<path fill="none" stroke="#63b8ff" d="M367.89,-250C377.59,-250 387.94,-250 398.01,-250"/>
<polygon fill="#63b8ff" stroke="#63b8ff" points="397.72,-253.5 407.72,-250 397.72,-246.5 397.72,-253.5"/>
</a>
</g>
</g>
<!-- Node6 -->
<g id="Node000006" class="node">
<title>Node6</title>
<g id="a_Node000006"><a xlink:href="ui__main_8cpp.html#a4f5bd886e20577ce1b85532aea982b14" target="_top" xlink:title=" ">
<polygon fill="white" stroke="#666666" points="776.25,-222 683,-222 683,-202 776.25,-202 776.25,-222"/>
<text xml:space="preserve" text-anchor="middle" x="729.62" y="-208.5" font-family="Helvetica,sans-Serif" font-size="10.00">set_default_group</text>
</a>
</g>
</g>
<!-- Node5&#45;&gt;Node6 -->
<g id="edge5_Node000005_Node000006" class="edge">
<title>Node5&#45;&gt;Node6</title>
<g id="a_edge5_Node000005_Node000006"><a xlink:title=" ">
<path fill="none" stroke="#63b8ff" d="M629.28,-212C642.02,-212 656.92,-212 671.25,-212"/>
<polygon fill="#63b8ff" stroke="#63b8ff" points="671.05,-215.5 681.05,-212 671.05,-208.5 671.05,-215.5"/>
</a>
</g>
</g>
<!-- Node8 -->
<g id="Node000008" class="node">
<title>Node8</title>
<g id="a_Node000008"><a xlink:href="ui__tools_8cpp.html#a1339595d52d820ddf74ce6a031bcbfa7" target="_top" xlink:title=" ">
<polygon fill="white" stroke="#666666" points="373.5,-184 266.75,-184 266.75,-164 373.5,-164 373.5,-184"/>
<text xml:space="preserve" text-anchor="middle" x="320.12" y="-170.5" font-family="Helvetica,sans-Serif" font-size="10.00">create_radius_button</text>
</a>
</g>
</g>
<!-- Node7&#45;&gt;Node8 -->
<g id="edge7_Node000007_Node000008" class="edge">
<title>Node7&#45;&gt;Node8</title>
<g id="a_edge7_Node000007_Node000008"><a xlink:title=" ">
<path fill="none" stroke="#63b8ff" d="M210.91,-145.39C228.28,-149.99 249.5,-155.6 268.54,-160.63"/>
<polygon fill="#63b8ff" stroke="#63b8ff" points="267.42,-163.95 277.98,-163.12 269.21,-157.18 267.42,-163.95"/>
</a>
</g>
</g>
<!-- Node7&#45;&gt;Node9 -->
<g id="edge13_Node000007_Node000009" class="edge">
<title>Node7&#45;&gt;Node9</title>
<g id="a_edge13_Node000007_Node000009"><a xlink:title=" ">
<path fill="none" stroke="#63b8ff" d="M210.76,-136C263.88,-136 363.86,-136 418.66,-136"/>
<polygon fill="#63b8ff" stroke="#63b8ff" points="418.45,-139.5 428.45,-136 418.45,-132.5 418.45,-139.5"/>
</a>
</g>
</g>
<!-- Node8&#45;&gt;Node9 -->
<g id="edge8_Node000008_Node000009" class="edge">
<title>Node8&#45;&gt;Node9</title>
<g id="a_edge8_Node000008_Node000009"><a xlink:title=" ">
<path fill="none" stroke="#63b8ff" d="M358.61,-163.52C377.44,-158.25 400.19,-151.89 419.07,-146.61"/>
<polygon fill="#63b8ff" stroke="#63b8ff" points="419.83,-150.03 428.52,-143.97 417.94,-143.29 419.83,-150.03"/>
</a>
</g>
</g>
<!-- Node9&#45;&gt;Node5 -->
<g id="edge12_Node000009_Node000005" class="edge">
<title>Node9&#45;&gt;Node5</title>
<g id="a_edge12_Node000009_Node000005"><a xlink:title=" ">
<path fill="none" stroke="#63b8ff" d="M471.96,-146.34C487.87,-158.66 515.99,-179.3 542.5,-193 545.35,-194.47 548.33,-195.88 551.37,-197.23"/>
<polygon fill="#63b8ff" stroke="#63b8ff" points="549.81,-200.37 560.39,-200.95 552.48,-193.9 549.81,-200.37"/>
</a>
</g>
</g>
<!-- Node10 -->
<g id="Node000010" class="node">
<title>Node10</title>
<g id="a_Node000010"><a xlink:href="hal__interface_8cpp.html#aa2b943cf1bdd2889e3ac76016e4ae359" target="_top" xlink:title="Shutdown the hardware.">
<polygon fill="white" stroke="#666666" points="632.75,-184 556.75,-184 556.75,-164 632.75,-164 632.75,-184"/>
<text xml:space="preserve" text-anchor="middle" x="594.75" y="-170.5" font-family="Helvetica,sans-Serif" font-size="10.00">hw_shutdown</text>
</a>
</g>
</g>
<!-- Node9&#45;&gt;Node10 -->
<g id="edge9_Node000009_Node000010" class="edge">
<title>Node9&#45;&gt;Node10</title>
<g id="a_edge9_Node000009_Node000010"><a xlink:title=" ">
<path fill="none" stroke="#63b8ff" d="M486.27,-143.69C503.25,-148.48 525.59,-154.78 545.49,-160.39"/>
<polygon fill="#63b8ff" stroke="#63b8ff" points="544.53,-163.76 555.11,-163.1 546.43,-157.02 544.53,-163.76"/>
</a>
</g>
</g>
<!-- Node11 -->
<g id="Node000011" class="node">
<title>Node11</title>
<g id="a_Node000011"><a xlink:href="hal__interface_8cpp.html#ac344d549b7ceb0868bba143a57470620" target="_top" xlink:title="Put the hardware into sleep mode.">
<polygon fill="white" stroke="#666666" points="623.38,-146 566.12,-146 566.12,-126 623.38,-126 623.38,-146"/>
<text xml:space="preserve" text-anchor="middle" x="594.75" y="-132.5" font-family="Helvetica,sans-Serif" font-size="10.00">hw_sleep</text>
</a>
</g>
</g>
<!-- Node9&#45;&gt;Node11 -->
<g id="edge10_Node000009_Node000011" class="edge">
<title>Node9&#45;&gt;Node11</title>
<g id="a_edge10_Node000009_Node000011"><a xlink:title=" ">
<path fill="none" stroke="#63b8ff" d="M486.27,-136C505.96,-136 532.82,-136 554.77,-136"/>
<polygon fill="#63b8ff" stroke="#63b8ff" points="554.55,-139.5 564.55,-136 554.55,-132.5 554.55,-139.5"/>
</a>
</g>
</g>
<!-- Node12 -->
<g id="Node000012" class="node">
<title>Node12</title>
<g id="a_Node000012"><a xlink:href="ui__main_8cpp.html#a0c56b2d3230d828cbfe6624bb30c0f24" target="_top" xlink:title=" ">
<polygon fill="white" stroke="#666666" points="647,-108 542.5,-108 542.5,-88 647,-88 647,-108"/>
<text xml:space="preserve" text-anchor="middle" x="594.75" y="-94.5" font-family="Helvetica,sans-Serif" font-size="10.00">LV_IMG_DECLARE</text>
</a>
</g>
</g>
<!-- Node9&#45;&gt;Node12 -->
<g id="edge11_Node000009_Node000012" class="edge">
<title>Node9&#45;&gt;Node12</title>
<g id="a_edge11_Node000009_Node000012"><a xlink:title=" ">
<path fill="none" stroke="#63b8ff" d="M486.27,-128.31C503.25,-123.52 525.59,-117.22 545.49,-111.61"/>
<polygon fill="#63b8ff" stroke="#63b8ff" points="546.43,-114.98 555.11,-108.9 544.53,-108.24 546.43,-114.98"/>
</a>
</g>
</g>
</g>
</svg>
